<?xml version="1.0" standalone="no"?>
<!DOCTYPE svg PUBLIC "-//W3C//DTD SVG 20010904//EN"
 "http://www.w3.org/TR/2001/REC-SVG-20010904/DTD/svg10.dtd">
<svg version="1.0" xmlns="http://www.w3.org/2000/svg"
 width="300.000000pt" height="234.000000pt" viewBox="0 0 300.000000 234.000000"
 preserveAspectRatio="xMidYMid meet">
<metadata>
Created by potrace 1.10, written by Peter Selinger 2001-2011
</metadata>
<g transform="translate(0.000000,234.000000) scale(0.100000,-0.100000)"
fill="#ffffff" stroke="none">
<path d="M307 2133 c-4 -3 -7 -20 -7 -38 0 -17 -5 -36 -11 -42 -8 -8 -8 -13 0
-17 16 -10 15 -193 -1 -199 -10 -4 -10 -7 0 -18 17 -18 17 -195 0 -203 -10 -5
-10 -7 0 -12 16 -7 17 -185 1 -201 -8 -8 -8 -13 0 -17 15 -9 15 -188 0 -203
-8 -8 -8 -13 0 -17 16 -10 15 -193 -1 -200 -10 -5 -10 -7 0 -12 16 -7 17 -185
1 -201 -8 -8 -8 -13 0 -17 16 -10 15 -193 -2 -199 -9 -4 -9 -7 1 -18 16 -18
17 -180 0 -197 -10 -10 -10 -15 -1 -20 6 -4 13 -25 15 -47 l3 -40 55 -3 c30
-2 61 -9 69 -15 11 -9 15 -9 18 1 4 9 47 12 172 12 120 0 171 -4 180 -12 11
-10 14 -10 18 0 6 15 353 18 353 2 0 -5 7 -10 15 -10 8 0 15 5 15 10 0 16 347
13 353 -2 4 -10 7 -10 18 0 19 17 345 17 352 0 4 -10 7 -10 18 0 19 17 355 17
363 0 5 -10 7 -10 12 -1 8 18 344 18 363 1 11 -10 14 -10 18 0 3 8 33 12 99
12 l94 0 0 965 0 965 -1288 0 c-709 0 -1292 -3 -1295 -7z m2553 -958 l0 -935
-1265 0 -1265 0 0 935 0 935 1265 0 1265 0 0 -935z"/>
<path d="M935 2036 c-96 -45 -205 -185 -320 -416 -94 -186 -204 -445 -195
-454 15 -15 24 -1 80 129 172 397 307 621 417 694 61 41 103 48 158 27 140
-54 261 -249 515 -831 303 -695 434 -884 615 -885 121 0 239 122 379 391 57
110 196 410 196 424 0 3 -8 5 -17 5 -13 0 -29 -27 -57 -93 -21 -50 -74 -163
-117 -250 -249 -506 -421 -572 -638 -247 -79 118 -167 294 -311 625 -221 506
-330 708 -440 815 -92 90 -172 110 -265 66z"/>
<path d="M113 2043 l3 -38 69 1 c53 0 71 4 79 17 18 28 -5 52 -50 52 -33 0
-40 -4 -42 -22 -4 -30 -20 -30 -24 -1 -2 13 -11 24 -20 26 -14 3 -17 -4 -15
-35z"/>
<path d="M114 1846 c-14 -36 0 -51 50 -54 45 -3 48 -2 43 17 -6 23 0 26 23 11
10 -6 11 -10 3 -10 -7 0 -13 -5 -13 -11 0 -6 10 -9 23 -7 17 2 22 9 22 33 0
28 -3 30 -39 33 -21 2 -43 -1 -49 -7 -8 -8 -8 -11 1 -11 7 0 12 -7 12 -15 0
-24 -20 -17 -30 10 -10 27 -37 34 -46 11z"/>
<path d="M121 1640 c-7 -4 -11 -20 -9 -36 l3 -29 75 0 75 0 3 33 c3 34 3 34
-56 34 -42 1 -52 -10 -28 -28 19 -14 19 -14 -2 -14 -15 0 -22 6 -22 19 0 21
-21 33 -39 21z"/>
<path d="M117 1423 c-9 -9 -9 -63 1 -63 15 -1 127 -2 140 -1 9 1 12 12 9 34
-3 30 -6 32 -43 33 -47 2 -59 -4 -44 -21 8 -9 8 -15 0 -20 -5 -3 -14 5 -20 19
-9 25 -29 34 -43 19z"/>
<path d="M114 1196 c-3 -8 -4 -23 -2 -33 3 -15 14 -18 78 -18 l75 0 0 30 c0
28 -2 30 -43 32 -36 1 -45 -2 -51 -20 l-8 -21 -5 22 c-7 25 -36 30 -44 8z"/>
<path d="M108 986 c-8 -8 -25 -16 -37 -18 -30 -4 -31 -22 -1 -26 14 -2 30 -7
35 -12 6 -4 42 -7 80 -6 l70 1 0 35 c0 34 -1 35 -40 35 -35 -1 -40 -3 -38 -23
2 -14 -3 -22 -12 -22 -8 0 -15 6 -15 14 0 25 -26 39 -42 22z"/>
<path d="M104 766 c-4 -10 -18 -16 -36 -16 -19 0 -28 -4 -25 -12 2 -7 16 -12
31 -11 14 1 26 -2 26 -8 0 -5 35 -9 79 -8 66 1 80 4 84 19 8 31 -10 48 -53 48
-32 1 -40 -3 -40 -18 0 -10 6 -21 13 -23 6 -3 2 -6 -10 -6 -15 -1 -23 6 -25
21 -4 27 -35 36 -44 14z"/>
<path d="M100 551 c0 -5 -12 -11 -27 -13 -38 -4 -42 -28 -4 -28 16 0 32 -4 36
-9 9 -15 65 -10 65 6 0 7 -4 13 -9 13 -5 0 -11 9 -14 20 -5 20 -47 29 -47 11z"/>
<path d="M174 544 c3 -9 6 -24 6 -35 0 -26 16 -24 23 2 4 14 10 18 18 13 10
-6 10 -9 1 -12 -21 -7 -13 -23 11 -20 17 2 23 11 25 36 3 32 3 32 -43 32 -39
0 -46 -3 -41 -16z"/>
<path d="M105 341 c-3 -6 -4 -15 -1 -19 2 -4 -11 -6 -31 -4 -27 3 -34 1 -31
-9 3 -8 15 -16 29 -17 13 -2 29 -7 34 -12 6 -4 41 -6 78 -6 54 2 71 6 78 19
16 28 -4 51 -46 53 -30 1 -39 -4 -48 -23 -13 -29 -25 -30 -29 -1 -3 24 -23 35
-33 19z"/>
<path d="M414 166 c-10 -26 1 -51 22 -54 26 -4 38 22 24 49 -13 22 -38 25 -46
5z"/>
<path d="M787 173 c-4 -3 -2 -12 4 -19 7 -8 7 -14 -1 -19 -18 -11 -11 -25 14
-25 27 0 42 15 26 25 -5 3 -10 15 -10 26 0 18 -20 26 -33 12z"/>
<path d="M1162 146 c0 -31 3 -36 23 -36 20 0 23 5 22 33 -2 25 -7 33 -23 35
-19 3 -22 -2 -22 -32z"/>
<path d="M1534 145 c0 -29 4 -35 22 -35 12 0 24 6 27 13 8 21 -11 57 -31 57
-14 0 -18 -8 -18 -35z"/>
<path d="M1920 161 c-15 -29 -12 -39 11 -46 26 -9 38 7 31 41 -5 29 -27 31
-42 5z"/>
<path d="M2284 168 c-4 -6 1 -17 11 -25 17 -12 17 -13 2 -13 -9 0 -17 -4 -17
-10 0 -13 47 -13 55 0 3 5 3 21 -1 35 -6 26 -37 35 -50 13z"/>
<path d="M2661 166 c-19 -23 -4 -58 22 -54 17 2 22 10 22 33 0 34 -24 45 -44
21z"/>
</g>
</svg>
