<?xml version="1.0" standalone="no"?>
<!DOCTYPE svg PUBLIC "-//W3C//DTD SVG 20010904//EN"
 "http://www.w3.org/TR/2001/REC-SVG-20010904/DTD/svg10.dtd">
<svg version="1.0" xmlns="http://www.w3.org/2000/svg"
 width="300.000000pt" height="255.000000pt" viewBox="0 0 300.000000 255.000000"
 preserveAspectRatio="xMidYMid meet">
<metadata>
Created by potrace 1.10, written by Peter Selinger 2001-2011
</metadata>
<g transform="translate(0.000000,255.000000) scale(0.100000,-0.100000)"
fill="#ffffff" stroke="none">
<path d="M1050 2057 c-781 -467 -773 -462 -803 -459 -29 4 -39 -21 -12 -32 12
-4 15 -27 15 -116 0 -66 -4 -109 -9 -105 -17 10 -24 -18 -8 -30 24 -17 25
-225 2 -225 -8 0 -15 -7 -15 -15 0 -8 7 -15 15 -15 10 0 15 -16 17 -61 l3 -61
115 -48 c71 -30 116 -55 118 -65 3 -11 12 -15 30 -13 40 4 414 -152 420 -175
3 -14 11 -17 28 -13 17 5 82 -18 214 -74 104 -44 194 -80 200 -80 6 0 10 -8 8
-17 -2 -14 3 -18 28 -16 19 2 77 -17 148 -47 65 -28 126 -50 135 -50 9 0 64
29 123 64 67 40 111 60 119 55 17 -10 29 -2 29 20 0 10 10 22 23 28 12 6 87
49 166 97 113 68 149 84 168 80 21 -6 24 -3 21 12 -3 15 30 39 161 117 112 66
173 96 191 95 18 -2 25 2 24 14 -1 11 30 36 95 74 115 69 105 60 97 79 -7 20
6 27 -341 -180 -152 -91 -279 -165 -281 -165 -3 0 -10 -5 -17 -10 -7 -6 -139
-87 -295 -180 l-282 -169 -133 55 c-72 31 -150 64 -172 74 -48 21 -90 39 -620
260 -528 221 -495 206 -495 224 0 13 7 12 48 -5 26 -11 97 -27 157 -35 231
-31 302 -51 540 -153 153 -66 249 -121 410 -237 132 -94 222 -144 261 -144 34
0 122 65 241 176 59 55 140 126 180 156 77 60 279 183 353 216 96 43 118 51
212 72 112 26 223 78 223 104 0 12 -13 22 -37 30 -46 16 -120 59 -161 95 -74
63 -260 178 -381 236 -261 125 -388 165 -590 189 -66 8 -148 24 -181 36 -33
12 -67 24 -76 27 -9 2 -34 -6 -55 -19 -53 -33 -84 -44 -188 -68 -108 -25 -190
-57 -299 -117 -191 -105 -337 -214 -480 -357 -69 -69 -149 -136 -163 -136 -5
0 -9 117 -9 270 0 212 3 271 13 275 7 3 10 0 7 -5 -12 -19 7 -10 91 41 46 29
81 56 77 62 -3 5 -2 8 3 5 5 -4 7 -58 4 -122 l-5 -116 -79 -48 c-44 -26 -78
-51 -77 -56 2 -5 -3 -13 -11 -17 -9 -6 -9 -9 -1 -9 19 0 164 91 159 99 -3 4 3
7 12 7 21 -1 364 203 358 213 -3 4 4 7 15 7 10 0 19 -6 19 -14 0 -7 -4 -10
-10 -7 -6 4 -10 -17 -9 -57 0 -35 3 -57 6 -50 2 6 9 10 14 6 7 -4 15 114 10
148 0 4 5 5 12 2 17 -6 323 180 319 195 -1 6 2 11 8 11 6 0 10 -43 11 -107 0
-60 3 -102 6 -95 2 6 9 10 14 6 5 -3 9 38 9 98 l0 103 106 61 106 61 125 -53
126 -52 1 -98 c1 -68 5 -98 14 -101 9 -4 12 19 12 90 0 94 0 95 24 93 13 0 22
-4 20 -7 -2 -3 82 -42 186 -85 l190 -79 0 -66 c0 -50 4 -68 15 -73 12 -4 15 6
15 60 0 49 3 65 13 61 6 -3 93 -39 191 -81 117 -50 186 -74 200 -71 17 5 18 4
6 -4 -10 -7 -11 -11 -2 -11 9 0 12 -26 12 -96 0 -56 4 -93 9 -89 5 3 12 -3 14
-12 3 -10 5 26 6 80 0 53 3 97 5 97 2 0 57 -22 121 -50 127 -55 135 -57 135
-36 0 8 -52 35 -130 67 l-130 54 0 112 0 111 125 -53 c75 -32 127 -49 131 -43
3 5 2 14 -2 18 -5 5 -106 49 -224 98 -118 49 -345 144 -505 211 -159 67 -381
160 -491 207 -111 46 -208 84 -215 84 -8 -1 -196 -110 -419 -243z m554 160
l119 -52 -2 -92 c-1 -52 3 -101 9 -113 6 -11 8 -20 5 -20 -4 0 -65 25 -136 55
l-130 56 -104 -63 c-57 -34 -102 -65 -100 -68 2 -4 -2 -7 -10 -7 -8 0 -15 4
-15 9 0 4 5 8 10 8 6 0 10 43 10 108 l0 109 103 61 c56 33 107 61 112 61 6 0
64 -24 129 -52z m371 -156 l190 -80 3 -110 c2 -79 6 -111 15 -111 8 0 6 -4 -3
-10 -8 -5 -19 -10 -25 -10 -5 0 -4 4 3 9 15 9 -373 175 -393 167 -10 -3 -13
23 -14 116 -2 112 -1 120 16 115 10 -3 104 -41 208 -86z m-747 -47 l-3 -108
-155 -93 c-85 -51 -163 -98 -172 -103 -17 -10 -18 -3 -18 99 l0 110 160 96
c88 53 158 101 155 106 -3 5 2 6 11 2 13 -5 15 -3 9 8 -6 10 -5 11 4 3 8 -7
11 -45 9 -120z m988 -43 c-5 -8 55 -35 339 -154 l60 -25 3 -112 c1 -62 -1
-110 -6 -108 -5 1 -99 41 -210 87 l-202 85 0 111 c0 99 4 125 17 125 2 0 2 -4
-1 -9z m-1366 -181 l0 -107 -167 -101 c-93 -55 -167 -105 -166 -110 2 -6 -4
-9 -12 -6 -18 7 -19 20 -4 29 7 5 9 42 8 104 l-3 96 159 97 c88 54 159 102
158 107 -2 6 4 8 12 5 12 -5 15 -28 15 -114z m675 -90 l40 -18 -83 -3 c-45 -2
-82 -3 -82 -1 0 5 66 42 75 41 6 0 28 -9 50 -19z m278 -55 c119 -18 286 -73
454 -149 141 -63 228 -115 384 -227 63 -45 140 -94 172 -109 56 -27 57 -28 35
-42 -26 -17 -135 -53 -188 -63 -116 -21 -279 -100 -475 -229 -112 -74 -183
-133 -311 -258 -79 -77 -149 -128 -178 -128 -34 0 -140 59 -246 138 -165 122
-264 178 -486 271 -151 63 -264 96 -384 110 -138 17 -205 30 -246 47 l-36 15
43 28 c24 15 86 68 138 117 137 129 227 201 338 270 193 120 282 161 413 190
156 35 409 43 573 19z"/>
<path d="M1508 1613 c-46 -39 -62 -59 -106 -133 -21 -36 -67 -113 -102 -172
-48 -81 -79 -120 -126 -162 -35 -30 -59 -56 -52 -58 7 -3 8 -10 4 -17 -7 -11
-10 -11 -17 0 -6 10 -9 7 -9 -10 0 -21 2 -22 17 -10 10 8 26 23 35 34 10 11
17 15 18 9 0 -6 -11 -23 -26 -39 -14 -15 -23 -30 -19 -33 6 -6 23 14 60 69 37
57 85 106 85 88 0 -9 11 -28 25 -43 14 -15 23 -31 20 -36 -3 -5 -1 -11 5 -15
5 -3 10 -1 10 6 0 8 6 7 18 -4 11 -10 28 -14 47 -10 23 3 26 2 15 -6 -8 -6
-15 -19 -16 -29 -1 -15 4 -18 19 -14 20 5 20 6 1 13 -15 6 -11 8 16 9 29 1 32
3 15 10 -14 6 -15 9 -5 10 23 1 -7 16 -50 24 -44 8 -109 63 -112 95 -3 28 18
40 25 14 2 -10 3 -6 1 8 -2 15 9 50 25 80 16 30 38 73 51 97 12 23 25 42 29
42 3 0 14 18 24 41 19 45 92 119 116 119 14 0 14 2 1 10 -10 6 -1 9 30 8 75
-1 117 -48 230 -253 63 -116 113 -185 147 -206 40 -25 73 -73 73 -108 0 -51
-78 -136 -144 -158 -24 -7 -27 -11 -13 -16 10 -3 17 -2 17 4 0 6 6 9 14 6 8
-3 20 1 26 9 7 8 19 14 26 14 8 0 14 7 14 15 0 8 4 15 10 15 5 0 21 18 36 41
20 32 25 51 22 88 -3 44 -2 46 22 43 23 -2 23 -1 -8 18 -18 11 -36 20 -41 20
-15 0 -109 106 -130 149 l-22 42 23 20 23 20 -27 -4 c-15 -2 -25 0 -22 4 3 5
-1 9 -9 9 -12 0 -97 119 -97 136 0 8 74 -5 163 -28 80 -21 118 -19 50 2 -21 7
-45 18 -53 25 -8 7 -22 15 -30 18 -11 4 -9 6 5 6 11 1 31 4 45 6 21 5 22 4 5
-4 -18 -8 -17 -9 10 -16 17 -3 39 -11 50 -16 13 -6 14 -8 3 -5 -10 3 -18 2
-18 -2 0 -14 66 -32 96 -26 17 3 36 0 48 -9 17 -13 17 -14 -12 -14 -17 0 -29
4 -26 8 2 4 -9 4 -26 -1 -17 -5 -38 -6 -46 -3 -31 12 -12 -8 22 -22 46 -19 54
-19 29 2 -20 16 -16 16 32 -4 10 -4 14 -3 9 5 -7 12 65 9 85 -4 7 -4 9 -3 6 2
-6 10 -48 30 -152 73 -29 12 -42 21 -30 21 25 1 -92 40 -120 40 -17 0 -17 -2
-5 -10 12 -8 10 -10 -10 -10 -42 0 -74 12 -58 21 17 11 -1 11 -60 0 -29 -6
-47 -5 -55 3 -56 53 -81 66 -122 66 -33 0 -52 -7 -77 -27z m302 -63 c3 -1 -11
-7 -30 -14 -39 -14 -50 -12 -50 9 0 12 39 14 80 5z m245 -60 c19 -8 19 -9 -2
-9 -12 -1 -25 4 -28 9 -7 12 2 12 30 0z"/>
<path d="M1350 1583 c-118 -12 -314 -75 -410 -131 -60 -35 -144 -115 -173
-166 -29 -50 -35 -135 -12 -189 8 -20 17 -37 20 -37 3 0 -2 18 -11 41 -22 55
-14 134 21 193 15 25 31 49 37 52 16 10 21 -5 7 -23 -7 -10 5 -1 28 21 23 21
45 36 50 33 12 -8 38 9 38 24 0 7 6 14 14 17 9 3 11 0 6 -8 -4 -7 5 -5 24 4
35 19 37 22 16 30 -8 3 -14 0 -12 -6 1 -6 -4 -13 -12 -16 -9 -3 -11 0 -6 8 11
17 -22 -1 -79 -45 -25 -19 -49 -35 -53 -35 -14 0 53 62 97 90 86 55 342 135
407 128 18 -2 33 -1 33 3 0 4 12 10 28 12 24 4 25 4 2 4 -14 0 -41 -2 -60 -4z"/>
<path d="M1590 1555 c7 -9 19 -14 27 -11 8 3 16 -1 19 -8 3 -8 12 -17 20 -20
12 -4 12 -2 4 15 -6 11 -22 24 -36 29 -37 14 -48 12 -34 -5z"/>
<path d="M1537 1518 c-15 -5 -25 -14 -21 -19 3 -5 -2 -12 -11 -15 -12 -5 -13
-9 -4 -20 7 -8 9 -17 5 -21 -3 -4 -13 2 -21 13 -17 23 -18 19 -6 -23 11 -38
-3 -47 -36 -25 -35 22 -27 -1 9 -28 24 -17 30 -19 25 -7 -8 21 12 22 27 1 10
-14 14 -14 41 0 17 9 36 16 43 16 7 0 22 21 33 46 l21 46 -23 24 c-24 26 -39
28 -82 12z m50 -34 c5 -16 -34 -57 -49 -51 -21 7 -21 55 0 60 25 7 45 3 49 -9z
m-61 -65 c3 -6 15 -9 25 -6 25 7 24 0 -1 -13 -20 -10 -60 5 -60 22 0 12 28 9
36 -3z"/>
<path d="M2069 1515 c18 -8 39 -15 45 -15 22 0 166 -92 211 -134 52 -49 86
-111 92 -169 6 -49 -8 -109 -25 -115 -7 -2 -10 2 -6 12 3 9 1 16 -5 16 -8 0
-10 -11 -5 -35 5 -29 2 -38 -22 -61 -24 -22 -25 -25 -7 -15 13 6 32 29 43 51
11 21 24 41 30 45 18 11 12 130 -9 177 -41 93 -169 193 -313 243 -55 19 -74
19 -29 0z"/>
<path d="M1070 1485 c-14 -8 -20 -14 -15 -14 6 0 21 6 35 14 14 8 21 14 15 14
-5 0 -21 -6 -35 -14z"/>
<path d="M1681 1469 c-25 -32 -24 -50 2 -25 8 8 16 13 19 11 2 -2 5 7 6 20 2
31 2 31 -27 -6z"/>
<path d="M1715 1421 c-67 -22 -122 -75 -67 -65 27 5 44 22 36 35 -2 4 5 11 17
14 14 5 25 2 30 -6 6 -10 9 -8 9 9 0 12 -1 22 -2 21 -2 -1 -12 -4 -23 -8z"/>
<path d="M2190 1413 c71 -52 120 -95 120 -104 0 -7 -6 -7 -16 2 -9 7 -4 -4 10
-26 32 -47 43 -58 27 -28 -16 31 -14 38 6 22 10 -8 3 5 -15 28 -30 38 -104 99
-142 117 -8 4 -4 -1 10 -11z"/>
<path d="M1056 1399 c-11 -10 -26 -19 -35 -19 -19 0 -104 -41 -97 -47 2 -3 15
1 28 8 12 7 26 12 31 11 12 -3 82 35 96 52 19 23 0 19 -23 -5z"/>
<path d="M2106 1408 c5 -8 2 -9 -12 -4 -10 4 -15 3 -10 -1 4 -4 18 -8 31 -8
19 -1 22 2 13 12 -13 16 -32 17 -22 1z"/>
<path d="M1095 1375 c-64 -33 -73 -42 -40 -42 17 0 22 2 15 7 -8 5 7 17 41 33
30 14 50 26 44 26 -5 1 -32 -10 -60 -24z"/>
<path d="M2175 1377 c-14 -11 -15 -16 -5 -22 9 -5 11 -4 6 3 -11 18 3 14 36
-9 16 -12 27 -24 24 -27 -3 -2 -14 1 -23 9 -10 7 4 -10 32 -39 55 -58 63 -64
39 -28 -8 14 -15 28 -14 31 2 10 -45 61 -63 68 -10 4 -15 11 -12 17 8 14 2 13
-20 -3z"/>
<path d="M2316 1338 c27 -31 57 -79 66 -105 9 -26 17 -40 18 -31 0 35 -40 105
-86 148 l-47 45 49 -57z"/>
<path d="M2390 1371 c24 -20 40 -26 40 -16 0 2 -15 12 -32 20 l-33 16 25 -20z"/>
<path d="M1401 1359 c5 -10 13 -20 17 -23 15 -9 67 -19 112 -21 25 -1 54 -6
65 -12 11 -6 26 -8 33 -6 7 3 19 -1 27 -7 11 -9 15 -9 15 -1 0 6 6 11 13 11
21 1 91 66 78 74 -6 4 -11 1 -11 -6 0 -15 -77 -53 -100 -50 -8 1 -48 3 -88 6
-50 3 -88 11 -122 28 -41 21 -47 22 -39 7z"/>
<path d="M1920 1370 c12 -7 10 -11 -10 -19 -14 -5 -20 -10 -15 -11 6 0 3 -5
-5 -10 -12 -7 -8 -10 15 -10 17 0 37 5 45 11 12 8 10 9 -7 4 -26 -7 -32 10 -7
19 9 3 38 6 65 6 31 0 48 4 44 10 -3 6 -36 10 -73 10 -45 0 -62 -3 -52 -10z"/>
<path d="M2065 1370 c6 -10 -19 -20 -48 -20 -12 0 -28 -4 -35 -9 -7 -4 12 -6
43 -3 46 4 58 1 70 -14 7 -10 11 -22 9 -25 -2 -4 5 -5 16 -2 20 5 18 23 -3 23
-18 0 -40 37 -24 43 6 2 1 6 -11 9 -12 4 -20 3 -17 -2z"/>
<path d="M1370 1352 c0 -5 10 -17 21 -28 22 -19 22 -19 10 3 -12 24 -31 39
-31 25z"/>
<path d="M850 1313 c-32 -38 -55 -82 -46 -90 2 -3 7 6 11 19 4 13 17 34 29 48
32 37 49 60 43 60 -2 0 -19 -17 -37 -37z"/>
<path d="M2125 1343 c29 -27 97 -75 101 -71 5 6 -50 49 -86 68 -14 7 -20 8
-15 3z"/>
<path d="M2420 1330 c0 -5 10 -14 23 -20 20 -10 20 -10 5 3 -10 8 -15 17 -11
20 3 4 1 7 -5 7 -7 0 -12 -4 -12 -10z"/>
<path d="M700 1310 c-14 -10 -21 -22 -17 -26 10 -10 57 17 57 33 0 18 -10 16
-40 -7z"/>
<path d="M1120 1317 c-33 -15 -106 -67 -94 -67 5 0 26 11 46 25 20 14 41 25
45 25 4 0 17 7 27 15 23 18 11 18 -24 2z"/>
<path d="M1941 1306 l-34 -12 39 -13 c22 -7 45 -15 52 -17 6 -3 12 -1 12 5 0
6 -9 11 -20 11 -25 0 -27 27 -2 33 11 3 12 5 2 5 -8 0 -30 -5 -49 -12z"/>
<path d="M2510 1314 c0 -6 3 -14 8 -18 4 -4 13 -22 20 -39 12 -32 12 -32 6 -3
-5 30 -34 79 -34 60z"/>
<path d="M1470 1300 c8 -5 22 -10 30 -10 13 0 13 1 0 10 -8 5 -22 10 -30 10
-13 0 -13 -1 0 -10z"/>
<path d="M1768 1303 c-27 -7 -21 -20 8 -20 16 0 21 2 14 7 -9 6 -9 9 1 13 17
6 1 7 -23 0z"/>
<path d="M2034 1291 c4 -5 2 -11 -4 -13 -6 -2 0 -9 12 -17 21 -13 22 -13 9 2
-12 15 -10 16 20 11 l34 -5 -34 15 c-39 18 -44 19 -37 7z"/>
<path d="M1422 1261 c58 -37 88 -47 88 -29 0 10 2 10 8 1 5 -8 13 -9 22 -3 11
7 8 10 -12 15 -15 4 -31 4 -36 1 -6 -3 -30 5 -54 19 -60 34 -72 31 -16 -4z"/>
<path d="M1570 1281 c0 -7 72 -31 92 -31 6 0 8 3 4 7 -10 10 -96 31 -96 24z"/>
<path d="M2158 1251 c46 -44 70 -56 34 -18 -12 13 -20 27 -17 30 3 4 2 5 -2 2
-3 -3 -18 2 -32 11 -15 9 -8 -2 17 -25z"/>
<path d="M933 1268 c-24 -32 -24 -41 0 -19 15 14 27 26 27 28 0 8 -19 2 -27
-9z"/>
<path d="M2465 1271 c-7 -12 12 -24 25 -16 11 7 4 25 -10 25 -5 0 -11 -4 -15
-9z"/>
<path d="M877 1252 c-17 -19 -40 -72 -34 -79 3 -2 10 11 17 29 7 18 20 41 28
51 20 22 10 22 -11 -1z"/>
<path d="M1148 1240 c-31 -16 -60 -34 -63 -40 -7 -11 100 44 120 62 15 13 3 9
-57 -22z"/>
<path d="M1694 1255 c23 -18 55 -19 76 -4 11 8 7 9 -17 5 -18 -3 -35 -1 -38 4
-3 6 -14 10 -23 10 -15 -1 -15 -2 2 -15z"/>
<path d="M670 1245 c-7 -9 -10 -18 -6 -22 3 -3 6 -1 6 6 0 6 7 11 16 9 10 -2
19 3 21 10 6 17 -22 15 -37 -3z"/>
<path d="M617 1243 c-12 -24 -6 -115 11 -160 19 -51 70 -123 86 -123 5 0 -3
15 -18 33 -49 61 -70 117 -70 190 1 66 -1 75 -9 60z"/>
<path d="M2231 1234 c6 -7 16 -11 21 -8 11 7 3 17 -18 20 -12 2 -13 -1 -3 -12z"/>
<path d="M959 1235 c-1 -3 -2 -8 -3 -12 -1 -5 -12 -27 -24 -50 -12 -23 -22
-48 -22 -55 0 -13 51 87 56 110 2 11 -4 18 -7 7z"/>
<path d="M1006 1232 c-4 -7 -4 -12 -1 -12 4 0 -10 -19 -29 -42 -20 -23 -36
-47 -36 -54 0 -7 -3 -21 -6 -31 -6 -16 -5 -16 9 2 9 11 17 26 17 34 0 7 14 31
31 52 17 21 29 44 27 51 -3 9 -6 9 -12 0z"/>
<path d="M1151 1211 c-67 -44 -118 -97 -124 -128 -3 -15 -3 -30 -1 -32 2 -2 7
10 10 28 7 34 69 92 145 136 24 13 37 25 29 25 -8 0 -35 -13 -59 -29z"/>
<path d="M1615 1229 c7 -10 55 -18 55 -9 0 4 -13 10 -29 12 -17 2 -28 1 -26
-3z"/>
<path d="M2046 1214 c77 -51 109 -96 128 -178 4 -15 9 -26 11 -24 7 6 -14 80
-31 111 -15 26 -14 27 6 24 12 -2 26 -10 31 -18 5 -8 9 -9 9 -4 -1 6 -7 19
-15 29 -11 14 -15 16 -15 5 0 -8 -15 2 -36 24 -19 20 -38 37 -42 37 -3 0 7
-13 23 -30 16 -16 25 -30 19 -30 -14 1 -80 60 -66 60 7 0 10 5 6 11 -4 8 -9 8
-13 1 -4 -7 -12 -8 -21 -2 -35 22 -29 8 6 -16z"/>
<path d="M2477 1233 c-12 -12 -7 -23 11 -23 13 0 14 2 3 9 -11 7 -11 9 0 14 8
3 9 6 3 6 -6 1 -14 -2 -17 -6z"/>
<path d="M907 1202 c-10 -10 -17 -28 -17 -39 0 -12 -4 -23 -10 -25 -5 -2 -6
-9 -1 -17 6 -10 11 -4 16 20 4 19 14 44 22 56 18 28 12 30 -10 5z"/>
<path d="M1047 1201 c-15 -10 -36 -35 -47 -56 -27 -52 -18 -56 11 -6 22 39 31
46 54 41 6 -1 7 2 3 6 -4 4 -3 13 3 21 15 17 11 16 -24 -6z"/>
<path d="M1695 1207 c-46 -15 -76 -30 -70 -36 3 -2 11 1 17 7 7 7 23 12 38 12
25 0 59 15 50 23 -3 2 -18 -1 -35 -6z"/>
<path d="M2038 1184 c29 -19 55 -41 58 -49 3 -7 13 -16 22 -20 25 -9 -26 42
-75 76 -23 16 -45 29 -50 29 -4 0 16 -16 45 -36z"/>
<path d="M2550 1183 c-1 -21 -7 -56 -15 -78 -19 -51 -18 -68 1 -33 15 28 32
148 20 148 -3 0 -6 -17 -6 -37z"/>
<path d="M2602 1210 c0 -8 4 -26 8 -40 6 -20 8 -21 8 -5 0 11 -3 29 -8 40 -5
12 -8 14 -8 5z"/>
<path d="M585 1150 c3 -65 29 -134 59 -159 8 -7 1 12 -15 43 -18 32 -34 82
-39 118 l-9 63 4 -65z"/>
<path d="M1445 1191 c28 -11 61 -19 75 -19 23 0 23 1 -7 14 -17 7 -51 16 -75
19 l-43 5 50 -19z"/>
<path d="M2255 1188 c10 -34 22 -42 27 -20 3 12 -2 23 -14 31 -18 11 -19 10
-13 -11z"/>
<path d="M1779 1182 c-8 -10 -21 -21 -29 -25 -13 -5 -13 -6 0 -6 16 -1 55 37
47 46 -3 2 -11 -4 -18 -15z"/>
<path d="M2335 1191 c3 -5 1 -12 -5 -16 -6 -4 -5 -12 5 -21 20 -20 19 -44 -2
-61 -14 -11 -14 -13 -3 -10 19 5 43 51 30 55 -6 2 -8 8 -4 13 3 5 0 9 -6 9 -7
0 -9 8 -5 20 4 12 2 20 -5 20 -6 0 -9 -4 -5 -9z"/>
<path d="M2486 1193 c-11 -11 -6 -23 9 -23 8 0 15 4 15 9 0 13 -16 22 -24 14z"/>
<path d="M1337 1173 c17 -13 16 -14 -6 -7 -35 9 -18 -9 31 -34 24 -11 66 -23
93 -26 28 -2 58 -7 68 -11 10 -4 17 -3 17 4 0 6 -8 11 -17 12 -10 0 -27 2 -38
4 -11 3 -36 6 -56 9 -39 4 -84 24 -76 33 3 2 14 0 25 -6 12 -6 27 -11 34 -11
7 1 -2 9 -20 18 -18 10 -31 20 -28 22 2 3 -7 6 -20 6 -23 2 -24 1 -7 -13z"/>
<path d="M1813 1175 c-7 -8 -13 -18 -13 -22 0 -11 -169 -58 -177 -50 -3 4 7
11 22 17 15 6 25 13 22 16 -3 3 -14 1 -25 -5 -12 -6 -34 -11 -51 -11 -34 0
-49 -15 -25 -24 25 -9 41 -7 24 4 -12 8 -13 10 -1 10 8 0 23 -7 33 -17 17 -15
21 -15 55 1 21 9 54 18 73 20 20 2 42 13 52 26 10 12 18 19 18 14 0 -4 5 -3
12 4 8 8 8 15 3 21 -6 6 -15 4 -22 -4z"/>
<path d="M1420 1171 c8 -4 33 -11 55 -15 25 -4 34 -3 25 3 -8 4 -33 11 -55 15
-25 4 -34 3 -25 -3z"/>
<path d="M1669 1165 c-3 -2 -35 -5 -73 -7 -37 -1 -70 -6 -72 -10 -3 -4 2 -5
10 -2 9 4 16 1 16 -6 0 -8 7 -10 18 -5 9 4 35 9 57 12 22 2 44 9 50 14 5 5 7
9 4 9 -3 0 -8 -2 -10 -5z"/>
<path d="M2651 1145 c-1 -22 2 -26 8 -16 7 11 10 7 14 -15 3 -25 4 -24 6 9 0
21 -3 36 -8 33 -5 -4 -12 0 -14 6 -3 7 -6 0 -6 -17z"/>
<path d="M540 1146 c0 -8 5 -18 10 -21 6 -3 10 -13 10 -22 0 -20 41 -106 47
-99 3 2 -2 15 -11 28 -8 13 -20 47 -26 76 -11 47 -30 72 -30 38z"/>
<path d="M665 1151 c-7 -12 12 -24 25 -16 11 7 4 25 -10 25 -5 0 -11 -4 -15
-9z"/>
<path d="M1876 1142 c-23 -26 -90 -58 -163 -78 -50 -13 -71 -14 -105 -6 -23 6
-45 9 -50 6 -4 -3 -27 -9 -50 -14 l-43 -9 43 3 c33 3 42 1 38 -9 -4 -11 0 -11
26 -1 19 9 43 11 64 6 33 -8 92 6 162 36 18 8 37 12 42 9 4 -3 11 2 14 11 3 8
10 13 15 9 5 -3 13 0 17 6 4 8 3 9 -4 5 -19 -11 -14 5 5 20 10 7 15 15 12 18
-3 3 -13 -2 -23 -12z"/>
<path d="M512 1120 c0 -19 2 -27 5 -17 2 9 2 25 0 35 -3 9 -5 1 -5 -18z"/>
<path d="M2272 1116 c-6 -13 -14 -41 -18 -63 -3 -21 -13 -46 -22 -55 -8 -10
-12 -18 -8 -18 10 0 -39 -40 -102 -83 -68 -46 -144 -74 -266 -98 -115 -23
-400 -36 -411 -20 -4 7 7 11 30 11 22 0 38 6 41 15 4 8 10 15 16 15 5 0 7 -4
4 -8 -2 -4 4 -9 15 -9 10 -1 19 2 19 8 0 5 7 9 15 9 17 0 19 9 5 30 -8 13 -10
12 -10 -2 0 -20 -20 -24 -37 -7 -9 9 -20 9 -44 0 -26 -9 -41 -8 -76 5 -24 9
-45 25 -49 36 -7 22 -16 17 -20 -10 -1 -9 -5 -26 -9 -37 -5 -16 2 -23 32 -37
l38 -17 -45 6 c-94 12 -199 46 -300 96 -84 42 -112 61 -139 97 -21 29 -31 37
-27 23 3 -13 8 -32 12 -43 3 -10 26 -34 52 -53 147 -107 344 -158 616 -158
291 0 457 45 661 180 56 36 60 42 74 84 7 21 19 41 27 44 8 3 14 9 14 14 0 19
-46 -21 -70 -60 -13 -22 -30 -43 -37 -45 -17 -7 -16 -3 7 39 11 19 16 35 11
35 -9 0 3 47 20 83 5 9 5 17 1 17 -5 0 -14 -11 -20 -24z"/>
<path d="M2460 1125 c-10 -13 -9 -15 11 -14 13 0 18 3 11 6 -6 2 -10 9 -6 14
9 15 -2 10 -16 -6z"/>
<path d="M491 1109 c-1 -29 17 -88 31 -104 5 -5 4 4 -2 20 -7 17 -15 48 -20
70 -6 29 -8 33 -9 14z"/>
<path d="M677 1114 c-8 -8 1 -24 12 -24 4 0 8 7 8 15 0 16 -9 20 -20 9z"/>
<path d="M1916 1105 c-12 -9 -15 -15 -7 -15 9 0 10 -4 5 -13 -5 -7 -1 -4 9 6
9 11 17 23 17 28 0 12 -1 11 -24 -6z"/>
<path d="M450 1055 c4 -20 11 -39 14 -43 9 -8 -5 62 -15 72 -4 5 -4 -8 1 -29z"/>
<path d="M973 1045 c0 -27 2 -39 4 -25 3 14 10 31 16 39 9 11 9 13 0 8 -7 -4
-13 0 -16 10 -3 10 -5 -4 -4 -32z"/>
<path d="M2441 1071 c-17 -13 -20 -20 -12 -26 12 -7 51 21 51 37 0 13 -13 9
-39 -11z"/>
<path d="M420 1059 c0 -14 7 -34 15 -45 13 -17 13 -15 4 21 -14 49 -19 56 -19
24z"/>
<path d="M524 1055 c4 -16 12 -34 17 -40 5 -5 4 6 -2 25 -15 45 -24 54 -15 15z"/>
<path d="M2059 1048 c4 -26 6 -28 9 -10 2 12 8 19 14 16 6 -4 9 -1 6 7 -3 8
-11 15 -20 17 -11 2 -13 -4 -9 -30z"/>
<path d="M1182 1058 c-14 -14 -16 -28 -3 -28 5 0 11 9 14 20 6 23 5 24 -11 8z"/>
<path d="M1290 1053 c0 -7 -7 -10 -17 -6 -12 3 -10 -1 5 -12 27 -20 38 -14 23
12 -6 10 -11 13 -11 6z"/>
<path d="M1775 1046 c-28 -8 -35 -14 -24 -18 9 -4 29 0 44 8 15 8 32 11 38 7
6 -3 7 -1 3 5 -8 14 -9 14 -61 -2z"/>
<path d="M1885 1040 c-11 -4 -30 -10 -42 -15 -13 -4 -23 -11 -23 -16 0 -12 17
-11 25 1 3 6 17 10 30 10 12 0 25 7 29 15 3 8 4 15 3 14 -1 -1 -11 -4 -22 -9z"/>
<path d="M1447 1024 c7 -3 10 -11 7 -18 -3 -8 4 -16 16 -19 16 -4 20 -2 16 9
-4 9 2 14 17 15 21 1 21 1 -3 9 -27 9 -73 12 -53 4z"/>
<path d="M730 1008 c0 -13 50 -41 58 -33 3 2 -7 10 -22 16 -19 9 -23 15 -14
21 10 6 8 8 -4 8 -10 0 -18 -6 -18 -12z"/>
<path d="M1590 1010 c0 -7 -7 -10 -15 -6 -22 8 -18 -2 6 -15 13 -6 19 -7 15
-1 -3 6 -1 12 6 14 9 3 9 6 0 12 -7 4 -12 2 -12 -4z"/>
<path d="M1128 984 c5 -29 82 -105 82 -81 0 9 -5 16 -11 15 -6 -2 -18 8 -27
21 -15 22 -15 23 4 19 10 -2 18 -11 16 -19 -3 -12 -1 -12 10 -1 18 19 -18 48
-39 30 -19 -15 -27 -4 -14 21 9 17 8 20 -7 18 -13 -1 -17 -7 -14 -23z"/>
<path d="M1341 1001 c-20 -13 -4 -18 89 -31 100 -14 120 -23 120 -55 0 -13 5
-27 10 -30 6 -3 10 -1 10 5 0 7 6 5 15 -4 8 -8 15 -22 15 -30 0 -16 12 -21 23
-10 10 10 -37 74 -51 69 -7 -3 -10 -1 -7 5 3 5 3 21 -1 35 -7 29 -46 44 -68
25 -16 -13 -56 2 -56 22 0 6 -6 5 -17 -3 -13 -11 -17 -11 -20 -1 -5 14 -41 16
-62 3z"/>
<path d="M1931 983 c-13 -13 -20 -23 -14 -23 11 0 49 38 42 43 -2 2 -15 -7
-28 -20z"/>
<path d="M1764 985 c-17 -13 -17 -14 -1 -15 9 0 17 4 17 9 0 5 8 12 18 14 13
4 14 5 1 6 -8 0 -24 -6 -35 -14z"/>
<path d="M1605 969 c-4 -6 -14 -8 -24 -4 -12 5 -13 3 -5 -5 6 -6 29 -13 50
-16 l39 -5 -22 21 c-25 23 -29 24 -38 9z"/>
<path d="M1250 966 c0 -10 55 -33 68 -29 21 8 13 26 -10 20 -12 -3 -30 -2 -40
4 -10 5 -18 7 -18 5z"/>
<path d="M1670 960 c0 -5 7 -10 15 -10 8 0 15 5 15 10 0 6 -7 10 -15 10 -8 0
-15 -4 -15 -10z"/>
<path d="M1930 950 c-14 -11 -20 -20 -14 -20 14 0 50 27 44 33 -3 3 -16 -3
-30 -13z"/>
<path d="M1850 938 c-35 -20 -35 -20 -5 -13 17 3 37 13 45 21 19 19 2 16 -40
-8z"/>
<path d="M1337 922 l-27 -29 20 -18 c19 -17 20 -17 14 -1 -4 11 3 27 22 47 19
20 23 29 13 29 -9 0 -27 -13 -42 -28z"/>
<path d="M1419 924 c-19 -23 -20 -43 -1 -41 11 0 17 11 18 29 1 33 1 33 -17
12z"/>
<path d="M1782 898 c-24 -5 -42 -11 -40 -13 7 -7 88 8 88 16 0 5 -1 9 -2 8 -2
-1 -23 -6 -46 -11z"/>
<path d="M1958 874 c-16 -8 -28 -17 -28 -19 0 -11 19 -4 41 15 29 23 24 25
-13 4z"/>
<path d="M1295 870 c-3 -6 2 -13 12 -17 10 -3 22 -8 26 -11 5 -2 3 5 -5 17
-14 23 -24 26 -33 11z"/>
<path d="M1885 719 c-103 -19 -401 -28 -515 -16 -47 5 -50 5 -20 -4 60 -17
402 -13 519 6 58 9 114 21 125 25 31 13 2 10 -109 -11z"/>
<path d="M1383 673 c9 -2 25 -2 35 0 9 3 1 5 -18 5 -19 0 -27 -2 -17 -5z"/>
<path d="M1434 665 c-8 -8 6 -10 50 -9 50 1 52 0 11 -3 -35 -3 -45 -7 -35 -13
12 -8 9 -10 -10 -11 -23 -2 37 -12 140 -23 48 -6 43 -3 -52 23 -29 8 -25 9 32
10 43 1 60 4 51 10 -11 7 -4 11 25 14 21 2 -6 5 -61 6 -55 2 -109 4 -121 5
-11 1 -25 -3 -30 -9z"/>
<path d="M1730 670 c-17 -6 -9 -7 25 -3 28 3 52 7 54 9 8 7 -54 2 -79 -6z"/>
<path d="M1668 623 c18 -2 45 -2 60 0 15 2 0 4 -33 4 -33 0 -45 -2 -27 -4z"/>
<path d="M1708 603 c12 -2 32 -2 45 0 12 2 2 4 -23 4 -25 0 -35 -2 -22 -4z"/>
<path d="M1638 583 c12 -2 32 -2 45 0 12 2 2 4 -23 4 -25 0 -35 -2 -22 -4z"/>
<path d="M1611 533 c7 -7 6 -13 -3 -16 -7 -2 -4 -3 7 -1 11 2 38 4 60 4 28 0
36 3 25 10 -10 6 0 10 35 13 28 2 9 3 -42 3 -68 -1 -89 -4 -82 -13z"/>
<path d="M1668 493 c18 -2 45 -2 60 0 15 2 0 4 -33 4 -33 0 -45 -2 -27 -4z"/>
<path d="M161 1626 c-9 -10 -9 -20 0 -40 19 -40 39 -33 39 14 0 42 -17 53 -39
26z"/>
<path d="M480 1328 c1 -86 2 -91 15 -68 20 36 20 160 0 160 -12 0 -15 -17 -15
-92z"/>
<path d="M162 1388 c-7 -7 -12 -21 -13 -32 -1 -18 -2 -17 -8 4 -5 18 -14 25
-31 25 -22 0 -25 -5 -25 -35 l0 -35 60 0 60 0 3 34 c4 43 -21 64 -46 39z"/>
<path d="M2802 1226 c26 -13 45 -26 41 -30 -4 -4 1 -4 11 0 13 5 17 4 12 -4
-5 -8 -1 -10 10 -5 12 4 15 3 10 -5 -4 -7 -1 -12 9 -12 35 0 6 25 -60 52 -81
33 -99 35 -33 4z"/>
<path d="M345 1125 c-22 -13 -36 -25 -31 -25 10 0 76 39 76 46 0 7 -3 5 -45
-21z"/>
<path d="M151 1119 c-10 -29 -4 -56 16 -63 24 -10 44 14 41 48 -4 40 -43 50
-57 15z"/>
<path d="M2566 980 c-17 -5 -15 -8 12 -19 20 -9 36 -10 48 -3 14 8 13 11 -12
19 -16 6 -38 7 -48 3z"/>
<path d="M2740 860 c0 -39 1 -41 28 -38 24 3 27 7 27 38 0 31 -3 35 -27 38
-27 3 -28 1 -28 -38z"/>
<path d="M431 796 c-19 -23 -10 -70 15 -74 30 -4 45 18 35 54 -8 33 -32 42
-50 20z"/>
<path d="M2175 760 c-5 -8 54 -40 76 -40 25 0 15 23 -15 35 -41 18 -53 18 -61
5z"/>
<path d="M1056 713 c-19 -10 -25 -18 -18 -25 6 -6 20 -4 41 6 17 9 31 18 31
20 0 12 -30 12 -54 -1z"/>
<path d="M2372 668 c-25 -25 -8 -78 25 -78 22 0 36 40 24 66 -12 26 -30 31
-49 12z"/>
<path d="M874 596 c-11 -29 1 -61 23 -64 27 -4 44 25 32 56 -9 25 -46 30 -55
8z"/>
<path d="M2003 436 c-29 -30 -29 -32 6 -51 43 -22 63 -10 59 34 -4 45 -32 52
-65 17z"/>
<path d="M1323 407 c-4 -8 -17 -17 -27 -21 -18 -6 -18 -8 -4 -22 9 -9 31 -17
49 -17 32 -2 34 0 37 36 3 34 1 37 -22 37 -14 0 -29 -6 -33 -13z"/>
</g>
</svg>
