<?xml version="1.0" standalone="no"?>
<!DOCTYPE svg PUBLIC "-//W3C//DTD SVG 20010904//EN"
 "http://www.w3.org/TR/2001/REC-SVG-20010904/DTD/svg10.dtd">
<svg version="1.0" xmlns="http://www.w3.org/2000/svg"
 width="900.000000pt" height="900.000000pt" viewBox="0 0 900.000000 900.000000"
 preserveAspectRatio="xMidYMid meet">
<metadata>
Created by potrace 1.10, written by Peter Selinger 2001-2011
</metadata>
<g transform="translate(0.000000,900.000000) scale(0.100000,-0.100000)"
fill="#ffffff" stroke="none">
<path d="M6128 7778 c-22 -17 -38 -102 -38 -197 0 -69 3 -80 24 -100 19 -18
24 -35 29 -103 3 -44 10 -85 16 -91 7 -7 11 -53 11 -111 0 -119 18 -171 60
-171 25 0 25 1 28 89 2 77 0 94 -17 117 -17 23 -19 35 -12 80 5 31 5 84 -1
127 -9 68 -9 75 11 96 12 12 21 30 21 40 0 36 -62 202 -82 219 -24 20 -29 21
-50 5z m68 -258 c1 -38 -2 -70 -7 -70 -5 0 -9 14 -9 30 0 23 -6 33 -25 40 -14
5 -25 11 -25 13 0 8 55 65 59 61 2 -2 5 -35 7 -74z"/>
<path d="M5695 7751 c-8 -13 -9 -274 -1 -299 4 -11 17 -22 29 -24 20 -3 23
-10 27 -73 3 -38 11 -80 18 -92 6 -12 12 -43 12 -70 0 -26 7 -57 15 -67 9 -12
15 -42 15 -76 0 -47 4 -60 24 -79 13 -13 32 -21 43 -19 25 4 31 80 9 113 -10
15 -16 46 -16 78 0 30 -4 67 -10 83 -16 51 -29 247 -17 262 6 8 10 28 9 44 -2
30 -66 190 -85 216 -11 14 -63 16 -72 3z m91 -185 c20 -31 20 -34 3 -54 -9
-12 -19 -27 -21 -33 -6 -17 -48 12 -48 31 0 9 7 25 15 36 8 10 15 27 15 37 0
26 13 20 36 -17z m24 -180 c0 -8 -4 -18 -10 -21 -5 -3 -10 3 -10 14 0 12 5 21
10 21 6 0 10 -6 10 -14z"/>
<path d="M6546 7588 c-9 -12 -16 -38 -16 -57 0 -20 -7 -55 -16 -78 -16 -42
-16 -44 9 -81 27 -40 26 -27 39 -422 3 -83 4 -85 28 -85 l25 0 3 218 2 218 26
10 c25 9 26 13 20 52 -4 23 -9 62 -12 87 -3 25 -9 54 -14 65 -5 11 -11 36 -12
55 -3 31 -6 35 -35 38 -23 2 -35 -3 -47 -20z"/>
<path d="M5307 7573 c-4 -3 -7 -68 -7 -144 0 -76 -4 -140 -9 -143 -5 -3 -25
28 -44 69 -33 69 -38 75 -67 75 -40 0 -58 -34 -41 -81 6 -17 11 -51 11 -74 0
-54 27 -134 56 -163 12 -13 26 -38 29 -55 9 -47 35 -128 51 -160 8 -16 14 -39
14 -52 0 -12 7 -28 15 -35 8 -7 15 -29 15 -50 0 -47 33 -92 64 -88 17 2 22 11
24 47 2 27 -2 49 -11 60 -8 9 -17 32 -20 51 -3 19 -15 67 -27 105 -12 39 -25
86 -29 105 -4 19 -13 45 -19 57 -13 24 -17 149 -4 156 4 3 17 1 28 -3 23 -9
41 -70 51 -177 3 -29 11 -57 19 -64 8 -6 14 -29 14 -53 0 -23 7 -52 16 -64 11
-16 15 -43 13 -100 -4 -153 0 -215 15 -231 19 -21 46 -88 46 -115 0 -11 7 -30
15 -40 8 -11 15 -34 15 -52 0 -18 4 -36 10 -39 5 -3 12 -27 16 -53 9 -73 44
-136 75 -140 15 -2 32 4 39 14 12 14 12 20 -3 46 -9 16 -17 42 -17 57 0 15 -5
32 -12 39 -6 6 -15 30 -19 54 -4 24 -12 61 -18 83 -6 22 -11 66 -11 97 0 43
-8 74 -30 121 -16 35 -30 70 -30 78 0 8 -4 19 -10 25 -6 6 -6 20 2 41 10 26 9
38 -4 70 -9 21 -19 61 -22 88 -2 28 -14 93 -26 145 -36 159 -41 202 -24 227 7
12 14 29 14 37 0 21 -84 193 -105 217 -18 19 -46 25 -58 12z m103 -197 c9 -12
7 -21 -11 -46 -25 -33 -52 -36 -57 -6 -4 17 33 66 49 66 3 0 12 -6 19 -14z
m40 -280 c0 -8 -4 -18 -10 -21 -5 -3 -10 3 -10 14 0 12 5 21 10 21 6 0 10 -6
10 -14z"/>
<path d="M5561 7438 c-5 -13 -5 -33 0 -46 5 -13 9 -41 9 -63 0 -47 15 -116 41
-184 10 -28 19 -61 19 -73 0 -12 7 -39 15 -59 8 -19 15 -50 15 -67 0 -18 7
-41 15 -52 8 -10 15 -37 15 -60 0 -82 41 -142 76 -113 19 15 19 122 0 138 -8
7 -15 42 -19 89 -3 42 -15 104 -28 137 -12 33 -24 97 -28 142 -3 45 -12 88
-18 95 -7 6 -13 21 -13 32 0 11 -9 39 -21 63 -16 33 -26 43 -45 43 -16 0 -27
-8 -33 -22z"/>
<path d="M497 7412 c-22 -13 -27 -23 -25 -47 3 -27 6 -30 40 -31 62 -1 61 -12
-5 -83 -43 -46 -57 -91 -34 -109 10 -9 50 -12 128 -10 105 3 114 5 117 23 4
32 -14 52 -35 39 -40 -25 -86 35 -49 65 19 16 28 69 18 105 -9 33 -61 66 -102
66 -14 0 -38 -8 -53 -18z"/>
<path d="M772 7418 c-27 -14 -30 -25 -35 -155 -4 -98 -3 -103 19 -118 36 -23
106 -19 137 8 53 45 43 137 -16 162 l-31 13 32 16 c41 21 45 62 6 76 -33 13
-83 12 -112 -2z m83 -29 c10 -15 -1 -23 -20 -15 -9 3 -13 10 -10 16 8 13 22
13 30 -1z"/>
<path d="M4917 7313 c-4 -3 -7 -50 -7 -104 0 -54 -4 -100 -9 -103 -5 -4 -26
28 -47 69 -37 75 -39 76 -74 73 l-35 -3 2 -55 c2 -81 18 -182 33 -209 7 -13
23 -33 36 -45 21 -18 69 -133 94 -221 13 -47 32 -98 46 -127 8 -14 14 -33 14
-42 0 -49 69 -90 84 -50 10 26 7 72 -5 76 -6 2 -15 21 -19 43 -8 36 -59 192
-79 240 -34 84 -46 131 -33 139 19 11 62 -17 68 -43 3 -14 14 -60 25 -101 10
-41 27 -113 39 -160 37 -152 43 -167 88 -205 23 -20 42 -45 42 -55 0 -9 7 -23
15 -30 8 -7 15 -25 15 -41 0 -16 8 -44 17 -64 15 -31 21 -36 48 -33 29 3 30 4
27 48 -2 25 -9 55 -17 67 -8 12 -15 33 -15 47 0 14 -4 27 -9 30 -5 3 -12 22
-16 42 -6 33 -13 54 -50 139 -7 17 -16 39 -18 50 -9 33 -76 214 -97 262 -24
54 -25 76 -5 93 8 7 15 22 15 34 0 22 -69 167 -104 219 -17 25 -53 36 -69 20z
m108 -212 c9 -23 -23 -63 -48 -59 -29 4 -34 40 -10 71 14 20 21 22 35 13 10
-6 20 -17 23 -25z m-175 -71 c0 -19 -11 -26 -23 -14 -8 8 3 34 14 34 5 0 9 -9
9 -20z m330 -471 c0 -28 -17 -32 -40 -9 -20 20 -27 60 -13 74 10 9 53 -43 53
-65z"/>
<path d="M5981 7249 c-6 -18 -11 -62 -11 -100 0 -57 4 -72 25 -97 20 -23 25
-41 25 -81 0 -29 7 -68 15 -88 8 -19 15 -64 15 -99 0 -34 5 -75 12 -91 6 -15
12 -43 12 -62 1 -40 27 -62 54 -45 15 10 17 24 14 105 -3 61 -9 102 -19 118
-12 18 -14 44 -9 120 8 142 8 145 -19 238 -29 100 -38 113 -75 113 -22 0 -30
-6 -39 -31z"/>
<path d="M1003 7224 c-27 -12 -13 -53 27 -85 l40 -32 0 -269 0 -268 -28 2
c-65 5 -72 -45 -12 -92 l40 -32 0 -270 0 -270 -29 5 c-63 13 -70 -47 -11 -88
l40 -28 -2 -271 -3 -271 -35 -5 c-52 -7 -52 -39 0 -80 l40 -32 -2 -266 -3
-267 -35 -5 c-29 -4 -36 -10 -38 -32 -2 -20 6 -33 38 -59 l40 -33 -2 -265 -3
-266 -25 -1 c-47 -2 -50 -4 -50 -32 0 -21 10 -37 40 -61 l40 -32 -2 -267 -3
-267 -25 0 c-62 0 -67 -40 -10 -85 l40 -32 0 -269 0 -269 -29 0 c-16 0 -34 -7
-41 -14 -16 -21 -9 -59 15 -71 11 -6 67 -42 125 -80 113 -75 137 -90 159 -101
8 -4 64 -40 124 -81 60 -40 110 -73 112 -73 2 0 33 -20 69 -45 37 -25 70 -45
75 -45 16 0 40 -47 30 -57 -6 -6 -9 -21 -7 -34 4 -29 44 -37 88 -19 23 9 33 9
56 -4 44 -24 65 -38 104 -67 19 -14 42 -29 50 -33 26 -12 42 -22 260 -166 80
-52 150 -97 155 -100 6 -3 37 -22 70 -44 33 -21 79 -50 102 -65 46 -28 59 -49
43 -65 -17 -17 -11 -55 10 -66 13 -7 32 -7 66 2 43 12 49 11 96 -15 27 -15 95
-58 151 -95 56 -37 107 -69 112 -72 12 -6 210 -135 247 -161 15 -10 29 -19 31
-19 3 0 54 -33 113 -73 85 -56 108 -77 106 -92 -2 -11 -6 -32 -9 -46 -7 -35
17 -43 80 -27 45 11 52 10 95 -12 26 -13 66 -38 89 -55 22 -16 105 -70 182
-120 78 -49 191 -123 252 -162 95 -62 117 -73 154 -73 24 0 46 4 50 9 3 5 19
13 37 16 36 8 170 59 211 80 16 8 37 15 47 15 10 0 21 4 25 9 3 5 19 13 37 16
36 8 170 59 211 80 16 8 36 15 46 15 9 0 22 5 27 10 11 11 77 -11 89 -30 3 -5
17 -10 30 -10 27 0 40 28 30 61 -7 22 18 47 60 61 11 3 45 16 75 28 30 11 89
33 130 47 41 14 79 30 85 34 5 5 19 9 31 9 12 0 27 7 34 15 7 8 19 15 28 15 9
0 52 14 96 31 45 18 99 38 121 46 49 18 100 40 138 59 16 8 36 14 44 14 17 0
168 55 193 71 35 22 46 21 92 -5 47 -27 50 -27 69 -10 14 13 18 25 14 48 -6
30 -4 32 57 54 95 35 140 52 173 68 17 7 58 22 92 34 35 11 88 31 119 45 31
14 62 25 69 25 8 0 26 7 42 15 24 12 126 51 253 96 19 7 49 18 65 25 65 27
102 42 158 60 56 18 60 18 88 1 17 -9 41 -17 54 -17 30 0 52 35 35 55 -14 16
-5 35 16 35 8 0 22 4 32 9 9 5 44 19 77 31 33 12 73 28 88 36 16 8 37 14 47
14 10 0 21 4 25 10 3 5 20 14 38 19 18 5 77 26 132 46 55 21 109 40 120 42 55
15 87 85 45 98 -26 8 -112 -18 -224 -69 -28 -13 -78 -31 -111 -42 -33 -10 -69
-24 -80 -31 -11 -7 -26 -13 -33 -13 -8 0 -28 -6 -45 -14 -18 -7 -52 -21 -77
-31 -25 -9 -56 -23 -70 -30 -14 -7 -47 -18 -75 -24 -27 -7 -70 -22 -95 -33
-86 -39 -106 -47 -195 -78 -49 -17 -103 -38 -118 -46 -16 -8 -36 -14 -46 -14
-9 0 -26 -7 -37 -15 -10 -8 -27 -15 -36 -15 -9 0 -29 -7 -45 -15 -33 -17 -195
-75 -210 -75 -6 0 -16 -7 -23 -15 -7 -8 -21 -15 -31 -15 -10 0 -35 -7 -56 -16
-21 -9 -47 -20 -58 -24 -105 -38 -144 -54 -167 -66 -14 -8 -33 -14 -41 -14 -8
0 -28 -7 -43 -15 -16 -8 -39 -15 -51 -15 -12 0 -24 -4 -28 -10 -3 -5 -20 -14
-38 -19 -51 -16 -117 -40 -171 -65 -28 -12 -76 -31 -106 -41 -30 -10 -68 -23
-85 -30 -16 -7 -50 -20 -75 -30 -25 -9 -57 -23 -72 -31 -14 -8 -35 -14 -46
-14 -12 0 -23 -4 -27 -9 -3 -5 -20 -13 -38 -17 -17 -3 -45 -12 -62 -19 -16 -7
-50 -21 -75 -30 -25 -9 -58 -23 -75 -30 -16 -8 -73 -29 -125 -46 -52 -18 -104
-38 -115 -46 -11 -7 -28 -13 -38 -13 -10 0 -31 -6 -45 -14 -15 -8 -45 -20 -67
-29 -22 -8 -76 -28 -121 -46 -44 -17 -87 -31 -96 -31 -9 0 -21 -7 -28 -15 -7
-8 -20 -15 -29 -15 -8 0 -38 -9 -66 -20 -27 -11 -81 -31 -120 -45 -38 -15 -82
-33 -97 -41 -36 -19 -64 -18 -115 7 -40 19 -43 24 -43 59 0 21 4 41 9 45 5 3
13 19 16 37 4 17 20 63 35 102 15 39 31 83 34 97 3 14 21 43 41 63 33 35 35
42 35 102 0 76 -12 104 -44 104 -24 0 -45 -26 -102 -125 -22 -40 -28 -63 -29
-115 -1 -42 -9 -85 -24 -120 -12 -30 -29 -76 -37 -102 -12 -40 -19 -48 -39
-48 -13 0 -26 4 -29 9 -6 8 -136 98 -161 111 -16 8 -331 213 -387 251 -15 11
-30 19 -34 19 -3 0 -23 12 -43 27 -41 31 -69 50 -91 60 -8 4 -63 39 -121 79
-58 39 -110 73 -115 75 -11 5 -151 96 -277 180 -48 33 -90 59 -93 59 -3 0 -23
13 -44 30 -21 16 -41 30 -44 30 -4 0 -19 8 -34 19 -44 30 -236 156 -245 160
-5 2 -50 31 -102 65 -51 33 -115 75 -141 91 -80 49 -109 68 -166 106 -113 77
-240 159 -244 159 -3 0 -17 9 -32 19 -96 68 -358 236 -389 250 -17 8 -22 21
-26 68 -7 76 -20 143 -35 170 -7 12 -12 34 -12 50 0 16 -6 37 -14 48 -7 11
-16 38 -18 60 -3 22 -11 67 -18 99 -12 53 -12 60 3 71 10 7 17 22 17 33 0 36
-99 226 -124 239 -13 7 -26 23 -30 36 -3 12 -5 902 -5 1977 0 1854 -1 1955
-17 1967 -10 7 -28 13 -40 13 -12 0 -34 2 -50 5 -16 2 -35 2 -41 -1z m125
-399 c-2 -182 -7 -285 -13 -285 -10 0 -20 532 -10 557 2 7 9 13 15 13 7 0 9
-91 8 -285z m2 -659 c0 -257 -6 -327 -24 -280 -8 21 -8 549 1 557 3 4 10 7 15
7 4 0 8 -128 8 -284z m0 -656 c0 -263 -5 -323 -24 -274 -8 21 -8 549 1 557 3
4 10 7 15 7 4 0 8 -130 8 -290z m0 -660 c0 -263 -5 -323 -24 -274 -8 21 -8
549 1 557 3 4 10 7 15 7 4 0 8 -130 8 -290z m0 -654 c0 -257 -6 -327 -24 -280
-8 21 -8 549 1 557 3 4 10 7 15 7 4 0 8 -128 8 -284z m2 -647 c2 -149 -1 -280
-5 -292 -20 -53 -27 22 -27 286 0 237 2 277 15 277 12 0 15 -41 17 -271z m-2
-658 c3 -150 1 -279 -3 -287 -22 -39 -27 15 -27 282 0 224 3 285 13 282 9 -4
13 -72 17 -277z m87 172 c3 -10 12 -25 20 -34 10 -12 11 -26 4 -55 -5 -21 -9
-34 -10 -28 -1 7 -12 15 -26 18 -27 7 -30 17 -15 47 7 13 7 25 1 38 -10 18 -6
31 11 31 5 0 11 -8 15 -17z m-13 -196 c9 -23 16 -54 16 -67 1 -14 7 -36 15
-50 8 -14 15 -38 15 -55 0 -16 9 -64 20 -105 11 -41 20 -81 20 -87 0 -20 -30
-15 -64 10 -17 13 -38 26 -47 29 -9 4 -19 23 -22 45 -9 49 -9 286 -1 307 11
28 31 17 48 -27z"/>
<path d="M6980 7200 c-13 -25 -55 -152 -65 -198 -5 -24 -2 -38 9 -51 10 -11
18 -41 20 -79 2 -34 9 -69 16 -77 13 -16 7 -30 -13 -30 -18 0 -28 -60 -25
-148 3 -81 3 -82 30 -85 25 -3 28 1 42 49 9 29 16 89 16 133 0 45 7 103 15
130 8 27 15 66 15 87 0 29 5 41 21 50 20 10 21 17 17 94 -7 100 -23 139 -60
143 -19 2 -30 -3 -38 -18z"/>
<path d="M4373 6983 c-16 -6 -16 -58 -2 -137 22 -118 32 -146 66 -172 22 -16
36 -39 43 -67 12 -48 33 -103 84 -219 14 -31 19 -51 31 -115 5 -26 5 -26 -4
-5 -13 29 -57 50 -72 35 -7 -7 -18 -9 -26 -6 -21 8 -104 191 -108 237 -2 22
-12 51 -23 65 -10 14 -22 33 -25 41 -35 74 -53 95 -85 98 -52 5 -53 -9 -10
-179 16 -61 50 -124 72 -132 7 -3 23 -27 35 -54 29 -62 70 -151 110 -233 17
-36 31 -71 31 -77 0 -22 50 -52 78 -47 23 4 30 -1 50 -35 12 -22 22 -46 22
-54 0 -8 7 -20 15 -27 8 -7 15 -20 15 -29 0 -9 14 -45 32 -81 17 -36 38 -80
47 -99 27 -57 91 -69 91 -17 0 14 -16 59 -35 100 -19 41 -44 98 -56 128 -11
29 -33 78 -49 108 -48 94 -80 174 -80 204 0 16 3 17 12 8 20 -20 48 -14 60 13
9 21 8 32 -5 61 -9 19 -17 43 -17 54 0 10 -4 21 -9 24 -5 3 -19 38 -31 78 -23
76 -42 121 -69 173 -10 19 -16 56 -16 101 0 39 -5 77 -11 85 -6 8 -22 34 -35
58 -63 115 -82 132 -126 114z m95 -185 c18 -18 15 -28 -8 -28 -13 0 -20 7 -20
20 0 23 10 26 28 8z"/>
<path d="M4607 6913 c-13 -13 -7 -63 18 -140 27 -84 53 -145 65 -153 11 -7
100 -199 100 -214 0 -8 7 -19 15 -26 8 -7 15 -20 15 -29 0 -9 6 -25 14 -36 7
-11 16 -31 19 -45 9 -38 43 -69 67 -63 28 7 30 54 5 108 -45 97 -75 166 -75
174 0 10 -54 135 -70 163 -5 10 -10 31 -10 47 0 30 -67 170 -97 204 -16 17
-54 23 -66 10z"/>
<path d="M6417 6883 c-4 -3 -7 -13 -7 -21 0 -8 -6 -28 -14 -45 -15 -35 -36
-108 -36 -126 0 -6 17 -22 39 -35 47 -30 54 -65 43 -201 -5 -49 -6 -115 -3
-145 5 -50 8 -55 32 -58 51 -6 61 34 39 169 -6 41 -10 108 -8 149 3 70 4 75
28 80 20 5 26 13 28 44 2 22 -3 47 -12 61 -9 14 -16 31 -16 40 0 9 -9 34 -20
55 -18 34 -25 40 -54 40 -18 0 -36 -3 -39 -7z m90 -155 c13 -13 12 -17 -2 -32
-16 -15 -19 -15 -34 -1 -10 8 -23 15 -29 15 -17 0 -26 21 -12 30 19 11 59 5
77 -12z"/>
<path d="M758 6759 c-12 -6 -18 -22 -18 -44 0 -35 0 -35 45 -35 25 0 45 -4 45
-10 0 -5 -20 -31 -45 -57 -48 -51 -61 -79 -50 -112 6 -19 14 -21 84 -21 46 0
82 5 89 12 19 19 14 44 -13 62 l-26 17 26 30 c19 23 25 42 25 78 0 65 -27 91
-96 91 -27 0 -57 -5 -66 -11z m100 -247 c2 -7 -6 -12 -17 -12 -21 0 -27 11
-14 24 9 9 26 2 31 -12z"/>
<path d="M7401 6628 c-12 -12 -24 -31 -27 -42 -3 -12 -19 -48 -35 -80 -34 -69
-35 -78 -12 -116 16 -27 15 -33 -6 -119 -12 -50 -19 -96 -16 -101 3 -5 -1 -23
-10 -40 -9 -18 -15 -49 -13 -73 3 -37 6 -42 30 -45 34 -4 58 29 58 83 0 22 7
49 15 59 8 11 15 40 15 65 1 25 7 57 15 71 8 14 14 42 15 62 0 29 7 44 30 65
28 25 30 31 30 100 0 117 -39 165 -89 111z m-8 -271 c-2 -9 -8 -15 -13 -12
-10 6 -11 69 -2 100 8 25 23 -61 15 -88z"/>
<path d="M3824 6454 c-4 -16 6 -63 31 -137 32 -95 44 -118 81 -155 24 -24 44
-49 44 -55 0 -9 82 -178 110 -227 5 -8 18 -36 30 -61 11 -26 29 -54 40 -64 18
-16 21 -17 45 -1 29 19 30 31 11 66 -8 14 -29 54 -46 90 -38 76 -107 214 -134
267 -11 21 -20 58 -21 83 -2 44 -12 65 -83 158 -36 49 -53 62 -77 62 -18 0
-26 -7 -31 -26z"/>
<path d="M5870 6360 c-15 -27 -30 -133 -23 -158 2 -11 16 -25 29 -31 17 -7 24
-19 24 -38 0 -16 7 -37 15 -47 9 -12 15 -42 15 -78 0 -44 5 -63 20 -78 16 -16
18 -25 10 -45 -11 -30 -3 -80 16 -96 23 -19 58 -6 69 24 7 22 6 35 -8 59 -11
19 -17 51 -17 93 0 43 -5 66 -15 75 -22 18 -18 76 6 109 18 24 19 33 10 67 -6
21 -26 66 -44 99 -28 52 -36 60 -64 63 -24 2 -34 -2 -43 -18z"/>
<path d="M6856 6318 c-9 -5 -28 -35 -42 -66 -14 -31 -29 -65 -34 -74 -18 -32
-12 -76 12 -93 14 -9 28 -35 36 -68 7 -28 15 -61 18 -73 4 -15 0 -23 -14 -26
-20 -6 -32 -49 -32 -124 0 -45 14 -64 45 -64 39 0 45 18 45 136 0 137 15 210
47 231 27 18 30 63 9 135 -26 84 -51 108 -90 86z m18 -143 c21 -16 21 -17 -12
-34 -18 -10 -23 -9 -28 4 -7 17 1 45 13 45 4 0 17 -7 27 -15z"/>
<path d="M4099 6269 c-14 -28 -4 -78 32 -154 16 -34 29 -65 29 -69 0 -4 12
-23 27 -43 15 -20 42 -64 59 -97 17 -34 38 -74 46 -91 9 -16 25 -48 36 -70 68
-134 92 -162 125 -149 36 14 27 44 -85 265 -63 123 -119 242 -126 265 -6 22
-21 49 -32 59 -11 10 -20 22 -20 27 0 17 -52 78 -66 78 -7 0 -18 -9 -25 -21z"/>
<path d="M4926 6108 c-14 -21 -14 -29 -1 -72 8 -27 15 -60 15 -72 0 -13 9 -28
19 -34 11 -5 31 -41 46 -82 14 -40 32 -86 39 -103 18 -41 41 -102 56 -150 18
-60 37 -85 65 -85 39 0 47 29 26 89 -10 29 -23 57 -30 64 -6 6 -11 18 -11 26
0 9 -10 41 -21 71 -12 30 -25 87 -30 127 -5 51 -16 84 -35 115 -16 24 -37 61
-49 83 -26 49 -65 59 -89 23z"/>
<path d="M3702 6098 c-16 -16 -15 -35 7 -93 38 -101 75 -171 107 -203 19 -18
43 -55 55 -82 12 -27 27 -55 35 -61 8 -6 14 -18 14 -26 0 -8 12 -34 28 -57 15
-22 41 -68 57 -100 19 -38 42 -66 63 -79 17 -10 32 -23 32 -28 0 -5 25 -59 56
-121 30 -62 64 -135 74 -162 37 -95 77 -135 114 -114 25 14 19 50 -19 132 -19
41 -35 79 -35 84 0 5 -9 17 -20 27 -11 10 -20 27 -20 38 0 11 -13 42 -30 69
-16 26 -30 51 -30 55 0 3 -24 53 -52 111 -40 79 -61 110 -86 125 -27 16 -76
84 -105 147 -4 8 -19 35 -33 60 -15 25 -30 63 -36 84 -5 22 -33 74 -63 116
-62 88 -86 105 -113 78z m363 -576 c0 -18 -20 -15 -23 4 -3 10 1 15 10 12 7
-3 13 -10 13 -16z"/>
<path d="M768 6086 c-22 -11 -23 -19 -29 -131 -7 -141 -5 -145 81 -145 48 0
60 4 81 26 48 51 23 154 -38 154 -14 0 -23 6 -23 15 0 9 9 15 23 15 33 0 49
15 45 41 -2 18 -10 25 -31 27 -17 2 -26 -1 -25 -9 2 -6 -3 -14 -9 -16 -7 -3
-13 2 -13 10 0 20 -33 27 -62 13z"/>
<path d="M517 6056 c-43 -40 -46 -58 -12 -88 21 -18 25 -31 25 -73 0 -64 16
-88 55 -83 l30 3 3 124 c2 82 -1 128 -9 137 -19 23 -53 16 -92 -20z"/>
<path d="M7804 5932 c-6 -4 -33 -47 -59 -97 -43 -82 -46 -93 -36 -121 11 -31
7 -57 -28 -174 -6 -19 -11 -49 -11 -66 0 -17 -7 -37 -15 -44 -20 -17 -19 -67
2 -78 25 -14 62 7 69 37 2 14 11 39 19 54 8 16 15 39 15 52 0 12 7 36 15 51 8
16 15 36 15 44 1 37 41 127 64 145 24 19 26 27 26 101 0 49 -5 85 -12 92 -13
13 -47 16 -64 4z m-20 -229 l-7 -27 -9 24 c-5 12 -6 32 -2 43 6 18 7 18 15 4
5 -9 6 -29 3 -44z"/>
<path d="M654 5856 c-11 -28 4 -48 33 -44 22 2 28 8 28 28 0 20 -6 26 -28 28
-18 2 -29 -2 -33 -12z"/>
<path d="M3324 5836 c-20 -15 -14 -67 16 -124 10 -21 30 -62 43 -93 15 -33 37
-65 56 -78 17 -12 31 -27 31 -32 0 -5 34 -65 75 -134 41 -68 75 -127 75 -130
0 -3 16 -30 35 -60 36 -57 61 -69 85 -40 15 18 6 78 -15 95 -8 7 -15 17 -15
23 0 6 -8 19 -17 29 -12 13 -13 22 -6 29 8 8 13 5 18 -10 3 -12 10 -21 14 -21
4 0 18 -21 31 -47 12 -27 28 -55 35 -63 7 -8 36 -60 65 -115 29 -55 61 -112
72 -127 23 -33 62 -37 78 -8 11 20 -1 48 -84 195 -90 161 -98 176 -170 326
-61 125 -121 172 -147 115 -8 -18 -7 -30 5 -54 18 -35 21 -62 6 -62 -5 0 -10
4 -10 9 0 4 -15 28 -33 52 -19 24 -42 72 -52 106 -21 69 -122 217 -154 226
-11 3 -28 -1 -37 -7z"/>
<path d="M6298 5806 c-8 -7 -20 -33 -27 -57 -7 -24 -17 -54 -22 -67 -17 -44
-11 -62 29 -79 20 -8 39 -17 41 -19 3 -3 4 -65 2 -140 -3 -155 7 -188 57 -182
26 3 27 5 30 81 2 50 -3 98 -13 132 -24 84 -21 111 15 124 25 8 30 15 30 44 0
19 -7 40 -15 47 -8 7 -15 22 -15 34 0 23 -23 63 -48 84 -21 16 -47 15 -64 -2z
m81 -141 c18 -20 20 -25 7 -25 -9 0 -24 4 -34 9 -9 5 -25 12 -34 15 -28 8 -21
26 10 26 16 0 37 -11 51 -25z"/>
<path d="M5363 5738 c-6 -7 -14 -47 -18 -89 -6 -64 -4 -78 10 -92 9 -9 20 -17
24 -17 12 0 41 -69 41 -98 0 -15 6 -36 14 -47 7 -11 16 -33 19 -50 27 -137 30
-146 52 -161 51 -33 85 25 50 86 -8 14 -14 38 -15 53 0 15 -6 40 -14 55 -20
41 -30 121 -16 138 18 21 5 70 -43 154 -34 59 -48 76 -68 78 -14 2 -31 -3 -36
-10z"/>
<path d="M7252 5623 c-18 -7 -92 -157 -92 -186 0 -13 9 -32 21 -43 18 -16 20
-26 15 -64 -4 -25 -11 -79 -16 -120 -5 -41 -10 -82 -11 -90 -5 -34 2 -50 26
-56 35 -9 55 11 55 56 0 21 7 57 15 80 8 23 15 66 15 95 0 68 15 110 45 123
30 14 32 48 10 132 -18 68 -43 89 -83 73z m-2 -163 c0 -5 -7 -10 -15 -10 -8 0
-15 5 -15 10 0 6 7 10 15 10 8 0 15 -4 15 -10z m-10 -130 c0 -11 -4 -20 -10
-20 -5 0 -10 9 -10 20 0 11 5 20 10 20 6 0 10 -9 10 -20z"/>
<path d="M787 5409 c-44 -36 -48 -66 -12 -97 21 -19 25 -30 25 -82 0 -55 2
-61 26 -72 23 -11 29 -10 45 11 16 20 19 40 19 131 0 91 -3 109 -18 123 -26
24 -42 21 -85 -14z"/>
<path d="M4448 5429 c-33 -19 -11 -135 39 -205 12 -17 25 -42 28 -57 4 -14 13
-31 21 -38 8 -6 14 -20 14 -29 0 -10 6 -31 14 -47 8 -15 19 -39 24 -53 6 -14
20 -47 31 -74 12 -27 21 -55 21 -62 0 -19 44 -46 64 -38 26 10 31 51 11 92
-10 20 -24 53 -32 72 -8 19 -21 49 -28 65 -20 48 -35 107 -39 153 -3 24 -11
51 -18 60 -8 9 -25 39 -39 66 -25 50 -71 106 -86 106 -4 0 -16 -5 -25 -11z"/>
<path d="M3212 5398 c-7 -7 -12 -19 -12 -28 0 -28 101 -224 136 -262 18 -21
45 -59 59 -85 14 -26 34 -61 45 -78 28 -44 45 -74 73 -130 33 -64 45 -78 82
-96 22 -10 41 -36 71 -94 23 -44 42 -86 43 -93 1 -8 21 -54 46 -104 25 -50 45
-96 45 -103 0 -21 37 -47 62 -43 34 5 34 45 -1 120 -16 34 -39 84 -51 110 -12
27 -26 50 -31 54 -5 3 -9 13 -9 23 0 20 -25 79 -109 261 -32 67 -47 82 -86 89
-32 5 -40 13 -72 71 -19 36 -41 72 -47 80 -24 30 -66 118 -66 137 0 20 -57
106 -103 156 -27 29 -55 35 -75 15z m405 -603 c9 -20 8 -25 -3 -25 -8 0 -14 4
-14 9 0 5 -9 11 -21 14 -12 3 -18 10 -14 16 11 19 40 11 52 -14z"/>
<path d="M5768 5163 c-9 -10 -18 -47 -21 -84 -6 -69 1 -87 44 -102 12 -4 18
-22 22 -64 20 -215 56 -300 105 -251 16 16 15 113 -2 146 -7 15 -15 55 -18 88
-3 52 -1 63 14 73 26 16 22 49 -14 117 -41 78 -56 94 -88 94 -15 0 -34 -8 -42
-17z m97 -148 c0 -10 -5 -20 -11 -22 -13 -4 -27 24 -18 38 9 15 29 4 29 -16z"/>
<path d="M8183 5158 c-11 -13 -39 -56 -62 -96 -38 -65 -41 -77 -36 -116 5 -33
1 -60 -20 -117 -14 -41 -31 -90 -37 -109 -5 -19 -14 -39 -19 -44 -18 -19 -10
-56 14 -65 34 -13 61 2 72 42 6 19 13 39 18 43 4 4 7 20 7 35 0 15 4 30 9 33
4 3 18 34 31 68 12 35 27 75 32 90 6 15 25 43 44 62 31 32 34 40 34 99 0 49
-4 68 -18 80 -25 23 -45 21 -69 -5z"/>
<path d="M2836 5127 c-13 -19 -13 -28 -3 -57 27 -74 92 -187 134 -234 24 -27
50 -64 58 -83 8 -18 27 -50 44 -70 16 -21 33 -50 36 -65 4 -16 11 -28 15 -28
5 0 23 -25 40 -55 35 -62 62 -85 90 -78 29 8 33 37 10 74 -11 19 -23 41 -27
49 -5 13 -48 83 -101 165 -6 11 -15 27 -19 35 -3 8 -21 38 -38 65 -18 28 -35
67 -38 88 -4 25 -23 59 -56 100 -28 34 -61 74 -73 90 -27 33 -53 35 -72 4z"/>
<path d="M6693 5104 c-13 -9 -23 -26 -23 -38 0 -11 -12 -43 -25 -71 -14 -27
-25 -54 -25 -58 0 -4 15 -14 33 -22 l33 -14 3 -132 c2 -148 9 -172 49 -167
l27 3 5 148 c5 145 5 148 30 160 37 18 36 60 -3 137 -35 71 -61 84 -104 54z
m67 -133 c0 -5 -6 -14 -14 -20 -16 -13 -32 2 -21 19 8 12 35 13 35 1z"/>
<path d="M4876 5044 c-10 -9 -16 -33 -16 -62 0 -26 -3 -57 -6 -69 -4 -16 2
-30 22 -50 34 -33 64 -86 64 -110 0 -24 77 -244 89 -256 5 -5 21 -7 35 -3 23
6 26 11 26 49 -1 23 -7 53 -15 67 -8 14 -14 37 -15 51 0 15 -7 32 -15 39 -8 7
-15 23 -15 37 0 13 -5 33 -10 44 -8 14 -6 25 6 43 19 31 15 46 -43 144 -58 97
-74 109 -107 76z"/>
<path d="M3143 4895 c-3 -9 -3 -28 0 -43 7 -32 80 -188 118 -247 38 -62 43
-71 118 -220 74 -146 97 -173 131 -155 28 15 24 45 -18 126 -71 138 -170 340
-188 384 -19 47 -82 150 -99 162 -18 13 -55 9 -62 -7z"/>
<path d="M7611 4819 c-17 -23 -31 -47 -31 -52 0 -6 -8 -20 -19 -31 -33 -37
-35 -63 -7 -87 29 -26 31 -47 10 -104 -27 -73 -46 -193 -34 -215 12 -23 20
-24 55 -8 18 8 25 19 25 38 0 15 7 44 15 63 8 20 15 48 15 63 0 14 7 47 15 73
8 25 17 58 20 73 3 18 12 28 28 30 18 2 23 10 25 43 3 37 -10 99 -27 135 -5 8
-20 16 -34 18 -21 3 -32 -5 -56 -39z m22 -146 c-3 -27 -7 -50 -9 -52 -6 -7
-25 80 -19 89 3 6 13 10 20 10 12 0 13 -10 8 -47z"/>
<path d="M493 4768 c-11 -13 -26 -45 -33 -73 -10 -43 -10 -58 5 -107 24 -84
59 -103 147 -76 29 9 41 9 50 0 19 -19 38 -14 50 13 13 29 -3 55 -34 55 -17 0
-18 5 -13 43 7 46 -13 118 -42 149 -25 27 -103 25 -130 -4z"/>
<path d="M752 4773 c-5 -10 -12 -69 -14 -131 l-5 -113 28 -15 c86 -44 180 15
166 103 -6 35 -38 74 -69 86 -11 4 -18 16 -17 29 0 13 3 17 6 11 2 -7 18 -13
34 -13 27 0 30 3 27 28 -3 26 -5 27 -75 30 -61 2 -73 0 -81 -15z"/>
<path d="M3986 4754 c-9 -8 -16 -25 -16 -36 0 -38 32 -143 49 -163 32 -36 51
-74 51 -98 0 -14 7 -30 15 -37 8 -7 15 -27 15 -44 0 -17 6 -40 14 -51 7 -11
23 -50 36 -87 27 -82 53 -113 80 -98 15 8 20 21 20 48 0 41 -30 136 -49 155
-6 6 -11 19 -11 29 0 10 -6 29 -14 41 -8 12 -19 54 -24 93 -7 51 -22 95 -56
161 -53 104 -76 122 -110 87z"/>
<path d="M2747 4708 c-9 -32 88 -253 121 -277 25 -18 71 -96 148 -251 20 -41
40 -77 43 -80 4 -3 14 -17 23 -32 21 -32 53 -44 73 -28 17 14 20 56 6 64 -5 4
-28 43 -51 89 -62 122 -88 170 -105 192 -8 10 -15 23 -15 27 0 5 -11 25 -23
46 -13 20 -26 54 -30 74 -3 23 -24 61 -50 95 -24 32 -49 68 -56 81 -17 31 -76
32 -84 0z"/>
<path d="M5296 4477 c-11 -8 -22 -36 -28 -68 -16 -90 -16 -92 24 -113 33 -18
37 -25 41 -71 12 -116 39 -230 59 -247 25 -22 32 -22 53 -2 13 13 15 28 9 73
-3 31 -13 68 -20 83 -19 37 -18 132 1 148 17 14 20 56 6 65 -6 3 -20 26 -33
51 -26 53 -61 94 -81 94 -7 0 -21 -6 -31 -13z m100 -166 c-10 -15 -46 -14 -46
2 0 7 5 18 12 25 10 10 15 9 26 -2 8 -8 11 -19 8 -25z"/>
<path d="M6182 4478 c-21 -28 -40 -76 -47 -120 -7 -47 -7 -48 28 -64 35 -17
35 -17 35 -83 -1 -57 12 -146 29 -204 3 -13 13 -17 31 -15 l27 3 0 115 c0 63
-4 126 -8 140 -6 21 -4 27 15 35 36 16 34 54 -7 123 -44 75 -79 99 -103 70z
m68 -398 c0 -16 -4 -30 -10 -30 -11 0 -14 43 -3 53 11 12 13 8 13 -23z"/>
<path d="M2365 4451 c-6 -19 23 -118 41 -143 6 -7 19 -33 29 -58 10 -25 35
-61 56 -80 20 -19 48 -55 61 -80 12 -25 29 -49 36 -53 6 -4 12 -17 12 -27 0
-10 5 -22 11 -25 5 -4 14 -17 19 -28 6 -12 25 -49 45 -82 51 -89 63 -116 69
-163 4 -24 13 -53 20 -65 20 -31 31 -113 16 -122 -17 -11 -28 -45 -40 -134 -9
-70 -9 -84 5 -103 12 -19 15 -59 15 -235 0 -215 6 -255 38 -268 9 -3 23 1 31
10 14 14 16 44 13 219 -4 214 0 235 38 201 22 -20 59 -16 74 8 8 13 7 24 -6
48 -10 17 -18 48 -18 69 0 22 -4 49 -9 62 -5 13 -19 68 -31 123 -12 55 -27
116 -33 135 -6 19 -12 55 -13 80 -2 56 -39 173 -62 193 -9 8 -26 17 -36 18
-16 3 -57 62 -83 119 -3 8 -18 33 -32 55 -39 61 -70 128 -71 150 0 11 -8 32
-18 46 -52 78 -72 106 -91 127 -28 28 -77 30 -86 3z m501 -1007 c2 -53 -1 -74
-9 -71 -12 4 -20 133 -10 150 11 18 18 -8 19 -79z m-69 -81 c-3 -10 -5 -2 -5
17 0 19 2 27 5 18 2 -10 2 -26 0 -35z m3 -273 c0 -73 -4 -120 -10 -120 -6 0
-10 44 -10 113 0 100 4 127 17 127 2 0 3 -54 3 -120z"/>
<path d="M4412 4368 c-7 -7 -12 -42 -12 -94 0 -79 1 -84 28 -102 29 -21 36
-41 75 -207 32 -133 50 -167 85 -163 24 3 27 8 30 43 3 38 -22 138 -54 213
-18 42 -18 63 1 88 23 31 17 54 -39 144 -40 65 -58 86 -77 88 -13 2 -30 -3
-37 -10z"/>
<path d="M3137 4353 c-16 -15 2 -132 25 -157 4 -6 8 -19 8 -31 0 -12 7 -30 15
-41 8 -10 15 -28 15 -39 0 -11 7 -29 15 -39 8 -11 15 -27 15 -35 0 -15 50
-161 74 -216 55 -126 55 -126 84 -123 26 3 27 6 24 49 -1 25 -21 93 -43 150
-22 57 -44 118 -49 134 -7 27 -14 47 -41 110 -5 11 -19 54 -33 95 -36 113 -56
150 -81 150 -12 0 -25 -3 -28 -7z"/>
<path d="M7082 4338 c-21 -28 -72 -132 -72 -150 0 -11 11 -23 25 -28 23 -9 25
-14 25 -78 0 -38 3 -103 6 -145 7 -73 8 -77 31 -77 29 0 27 -5 48 155 14 112
20 133 41 153 13 13 24 28 24 35 0 20 -29 96 -46 123 -18 26 -64 33 -82 12z"/>
<path d="M2720 4325 c-8 -10 -10 -28 -5 -52 12 -65 64 -218 78 -228 20 -15 63
-102 82 -165 7 -23 68 -159 98 -219 26 -52 77 -54 77 -3 0 38 -14 81 -56 169
-19 39 -34 77 -34 84 0 7 -6 20 -14 28 -15 17 -76 189 -76 214 0 9 -13 39 -30
67 -16 28 -30 54 -30 58 0 13 -51 62 -64 62 -8 0 -19 -7 -26 -15z"/>
<path d="M3549 4168 c-18 -33 7 -174 36 -210 14 -17 31 -63 45 -125 12 -54 28
-114 35 -133 30 -85 37 -107 44 -135 6 -25 12 -30 36 -30 30 0 30 0 28 56 -1
30 -14 95 -29 145 -14 49 -30 127 -33 174 -5 59 -16 105 -35 150 -15 36 -34
80 -42 98 -11 26 -19 32 -43 32 -21 0 -34 -7 -42 -22z"/>
<path d="M2324 4152 c-24 -16 -22 -44 6 -107 16 -36 31 -77 32 -92 3 -23 -1
-28 -27 -33 -29 -5 -30 -8 -33 -60 -2 -32 4 -79 14 -112 15 -51 16 -66 4 -125
-7 -38 -15 -98 -17 -135 -4 -65 -4 -67 26 -89 26 -19 31 -29 31 -65 0 -54 15
-94 35 -94 19 0 19 -4 -2 -58 -14 -38 -15 -55 -4 -139 6 -53 17 -103 23 -110
13 -16 40 -17 56 -1 18 18 15 165 -4 220 -17 51 -16 149 2 155 7 2 14 -11 17
-29 15 -91 51 -138 90 -116 18 10 23 53 7 63 -5 3 -10 17 -10 31 0 14 -6 37
-14 52 -7 15 -16 43 -20 62 -8 41 -53 192 -70 235 -13 33 -13 147 1 155 4 3 9
-5 11 -18 2 -13 14 -39 28 -59 13 -20 24 -39 24 -44 0 -4 20 -50 45 -103 35
-74 51 -97 70 -102 77 -19 57 57 -91 350 -28 55 -48 110 -51 140 -5 36 -19 71
-51 121 -69 109 -94 130 -128 107z m124 -350 c4 -25 -13 -30 -22 -6 -9 25 -7
36 7 32 6 -3 13 -14 15 -26z m-44 -281 c-8 -74 -20 -93 -53 -80 -22 9 -22 10
-7 34 9 13 16 31 16 40 0 17 41 78 47 71 3 -2 1 -31 -3 -65z m40 -535 c-3 -9
-10 -16 -15 -16 -11 0 -12 43 -2 54 10 10 24 -20 17 -38z"/>
<path d="M770 4122 c-44 -36 -61 -125 -36 -195 18 -54 36 -68 90 -70 41 -2 51
2 71 25 47 55 44 180 -5 230 -34 33 -86 38 -120 10z m58 -133 c-2 -19 -7 -33
-13 -32 -12 3 -19 49 -10 71 10 26 27 -2 23 -39z"/>
<path d="M1936 3879 c-9 -14 -12 -29 -7 -43 30 -81 31 -87 7 -95 -32 -13 -49
-38 -43 -63 3 -13 2 -69 -2 -126 -10 -141 -7 -158 40 -188 37 -23 39 -27 39
-77 0 -29 6 -62 14 -73 8 -11 16 -46 19 -79 8 -97 28 -229 38 -247 11 -21 49
-24 67 -6 17 17 15 93 -4 129 -16 32 -16 79 1 81 6 1 11 -7 13 -18 6 -37 41
-101 58 -108 11 -4 25 0 37 12 15 16 17 24 8 40 -6 11 -11 31 -11 44 0 13 -7
32 -15 42 -8 11 -15 29 -15 41 0 12 -3 25 -7 29 -23 23 -103 300 -90 313 13
12 29 -14 101 -162 61 -126 80 -156 100 -161 62 -15 60 25 -5 158 -27 57 -54
110 -58 118 -4 8 -15 31 -24 50 -9 19 -29 64 -46 99 -17 34 -31 78 -31 97 0
23 -14 53 -47 101 -82 119 -106 136 -137 92z m62 -352 c-2 -17 -7 -32 -13 -32
-13 0 -18 40 -10 73 6 24 8 25 16 9 6 -10 9 -32 7 -50z m30 -87 c2 -14 8 -29
13 -34 14 -16 11 -34 -11 -56 -20 -20 -20 -20 -20 15 0 27 -4 35 -18 35 -10 0
-27 7 -38 15 -19 15 -19 15 5 35 32 28 65 23 69 -10z"/>
<path d="M4832 3798 c-7 -7 -12 -21 -12 -32 -1 -12 -7 -32 -15 -46 -8 -14 -14
-39 -15 -57 0 -25 7 -35 33 -51 30 -17 35 -27 42 -73 4 -30 11 -79 15 -109 11
-76 33 -140 53 -151 21 -12 57 9 57 33 0 25 -38 247 -44 257 -3 4 3 16 14 26
11 10 20 29 20 41 0 26 -53 135 -76 159 -18 18 -55 20 -72 3z m87 -127 c11 -7
11 -13 -3 -32 -9 -13 -16 -34 -16 -46 0 -13 -3 -23 -8 -23 -5 0 -8 93 -3 108
2 5 16 1 30 -7z m21 -215 c0 -8 -4 -17 -9 -21 -12 -7 -24 12 -16 25 9 15 25
12 25 -4z"/>
<path d="M3981 3778 c-16 -40 -33 -132 -30 -158 3 -16 12 -26 29 -30 19 -4 26
-15 32 -45 5 -22 13 -59 18 -83 6 -23 10 -61 10 -85 0 -23 6 -52 14 -63 8 -11
16 -40 18 -65 3 -43 4 -44 38 -44 29 0 36 4 38 24 2 13 -2 34 -8 47 -7 12 -10
29 -7 38 5 13 -14 154 -29 204 -5 17 0 29 16 44 18 17 21 27 15 57 -4 20 -13
47 -20 61 -7 14 -16 32 -19 40 -20 49 -44 75 -74 78 -26 3 -34 -1 -41 -20z
m89 -143 c6 -8 9 -22 7 -32 -3 -10 -8 -31 -11 -46 -10 -45 -24 -22 -24 38 1
57 7 66 28 40z"/>
<path d="M5684 3773 c-16 -25 -32 -80 -37 -127 -1 -10 7 -23 18 -30 26 -14 38
-34 40 -66 2 -14 8 -54 15 -90 6 -36 14 -80 16 -98 3 -20 14 -38 30 -48 23
-16 26 -15 45 2 15 13 19 25 14 44 -3 14 -10 61 -14 105 -5 44 -12 90 -16 102
-5 16 -2 23 14 28 35 11 35 41 1 103 -59 105 -93 125 -126 75z m86 -116 c0
-14 -20 -37 -32 -37 -12 0 -10 24 4 38 16 16 28 15 28 -1z m3 -225 c-3 -12 -9
-22 -14 -22 -11 0 -12 54 -2 64 11 11 23 -19 16 -42z"/>
<path d="M3150 3745 c-5 -13 -10 -60 -11 -105 -1 -62 2 -85 15 -99 9 -9 16
-27 16 -40 0 -12 7 -38 15 -58 8 -19 15 -65 15 -102 1 -42 6 -73 15 -85 23
-30 18 -70 -14 -134 -16 -31 -38 -86 -49 -122 -11 -36 -23 -75 -26 -87 -5 -16
0 -28 20 -46 25 -24 26 -27 16 -73 -6 -27 -16 -108 -23 -181 -13 -144 -9 -163
36 -163 33 0 47 41 56 160 19 252 22 266 53 295 22 20 27 31 21 52 -17 68 -17
84 -1 108 20 30 21 95 1 121 -9 12 -14 44 -15 91 0 40 -5 93 -12 117 -9 36 -9
53 2 86 11 33 11 50 2 83 -7 23 -20 72 -31 109 -10 37 -24 75 -31 83 -20 24
-59 19 -70 -10z m64 -841 c18 -17 22 -84 6 -84 -5 0 -10 11 -10 24 0 14 -4 36
-10 50 -11 30 -8 32 14 10z m-19 -293 c-5 -20 -8 -22 -16 -10 -10 17 -12 63
-2 73 11 11 25 -36 18 -63z"/>
<path d="M6561 3706 c-15 -18 -51 -115 -51 -138 0 -9 12 -23 27 -30 34 -16 45
-60 43 -176 -2 -90 7 -112 46 -112 37 0 48 31 35 104 -6 35 -11 83 -11 109 0
39 4 49 30 67 17 12 30 30 30 41 0 21 -57 129 -74 141 -18 13 -63 9 -75 -6z
m74 -125 c7 -12 -12 -24 -25 -16 -11 7 -4 25 10 25 5 0 11 -4 15 -9z"/>
<path d="M1520 3480 c-13 -25 -12 -258 2 -283 5 -10 20 -22 34 -27 18 -7 24
-17 24 -42 1 -18 7 -44 15 -58 8 -14 14 -44 15 -66 0 -23 6 -47 14 -53 8 -7
16 -43 19 -94 7 -80 21 -142 38 -161 15 -17 62 -9 79 14 l18 23 11 -21 c14
-26 56 -29 65 -5 8 21 -3 101 -15 109 -5 3 -9 15 -9 27 0 13 -7 32 -15 44 -9
12 -27 57 -41 100 -14 43 -29 82 -35 87 -5 6 -9 19 -9 31 0 11 -7 30 -15 42
-9 13 -14 43 -14 80 1 50 -4 68 -37 126 -22 38 -45 81 -53 95 -28 52 -72 68
-91 32z m82 -145 c4 -5 4 -13 2 -17 -10 -16 -22 -7 -33 23 -10 29 -9 30 7 18
9 -8 20 -18 24 -24z m33 -63 c0 -18 -20 -15 -23 4 -3 10 1 15 10 12 7 -3 13
-10 13 -16z m35 -148 c0 -8 5 -14 10 -14 15 0 12 -36 -5 -50 -19 -16 -38 -4
-26 18 7 12 5 22 -5 33 -7 8 -16 31 -20 50 l-6 34 26 -28 c14 -15 26 -35 26
-43z"/>
<path d="M507 3452 c-18 -11 -31 -31 -38 -57 -14 -59 -23 -69 -59 -75 -41 -6
-60 -31 -41 -54 15 -18 51 -22 51 -6 0 22 27 8 43 -23 20 -37 63 -67 97 -67
12 0 35 8 51 17 26 16 29 16 47 0 23 -21 36 -21 52 -2 18 22 -2 65 -31 65 -20
0 -21 4 -15 40 9 56 -13 127 -47 156 -33 28 -71 30 -110 6z"/>
<path d="M762 3453 c-18 -16 -21 -33 -24 -136 l-4 -118 27 -15 c112 -57 225
72 138 158 l-30 31 20 21 c42 45 17 76 -62 76 -28 0 -52 -6 -65 -17z m93 -24
c10 -15 -1 -23 -20 -15 -9 3 -13 10 -10 16 8 13 22 13 30 -1z"/>
<path d="M3578 3355 c-10 -13 -18 -32 -18 -43 0 -11 -7 -36 -16 -57 -21 -50
-15 -97 13 -110 13 -5 25 -15 27 -22 3 -6 6 -83 7 -170 1 -87 6 -169 11 -183
13 -36 37 -51 59 -39 18 9 19 25 19 198 l0 189 25 16 c26 17 32 44 16 74 -6 9
-19 43 -30 74 -11 32 -26 67 -33 78 -18 28 -59 25 -80 -5z m95 -132 c4 -3 0
-15 -10 -25 -19 -22 -93 -26 -93 -5 0 22 86 48 103 30z"/>
<path d="M4399 3208 c-23 -36 -51 -137 -44 -158 3 -10 15 -22 25 -25 11 -4 22
-18 25 -33 3 -15 10 -43 15 -63 6 -20 10 -79 10 -131 0 -103 9 -123 51 -116
35 5 44 29 33 94 -7 48 -12 58 -26 56 -23 -4 -24 36 -3 64 8 10 15 35 15 54 0
40 8 54 33 63 28 10 20 65 -21 142 -32 61 -41 70 -68 73 -23 2 -35 -3 -45 -20z
m85 -119 c-8 -14 -24 -10 -24 6 0 9 6 12 15 9 8 -4 12 -10 9 -15z"/>
<path d="M5233 3098 c-25 -29 -55 -111 -51 -140 2 -13 11 -24 23 -26 33 -6 36
-15 46 -113 5 -52 13 -114 17 -138 8 -50 32 -72 60 -55 23 15 27 78 11 182
-12 80 -12 83 11 107 27 29 23 64 -15 142 -32 68 -66 81 -102 41z m69 -159
c-4 -64 -11 -91 -23 -84 -8 5 -7 85 0 133 1 2 7 2 14 -1 8 -2 11 -20 9 -48z
m28 -254 c0 -8 -4 -15 -10 -15 -5 0 -10 7 -10 15 0 8 5 15 10 15 6 0 10 -7 10
-15z"/>
<path d="M6075 3005 c-14 -13 -25 -32 -25 -42 0 -10 -7 -27 -15 -37 -28 -37
-13 -86 27 -86 21 0 25 -16 32 -138 7 -114 16 -134 59 -130 37 4 48 32 34 93
-4 22 -11 68 -14 102 -5 60 -4 63 21 74 38 18 32 58 -22 139 -39 58 -60 63
-97 25z m55 -220 c0 -25 -4 -45 -10 -45 -11 0 -14 73 -3 83 11 12 13 8 13 -38z"/>
<path d="M785 2779 c-42 -37 -48 -79 -12 -94 19 -8 23 -20 27 -74 4 -51 9 -67
27 -78 19 -13 24 -12 43 7 20 20 21 30 18 136 -2 88 -6 117 -18 124 -26 17
-48 11 -85 -21z"/>
<path d="M4008 2793 c-19 -21 -50 -90 -69 -152 -12 -40 -11 -44 7 -57 39 -27
40 -31 34 -89 -4 -32 -3 -93 0 -134 4 -42 3 -87 -2 -100 -13 -36 -3 -53 29
-49 24 3 28 8 31 38 2 19 9 67 17 107 8 40 15 104 15 142 0 68 1 71 30 86 24
12 30 22 30 48 -1 17 -7 43 -15 57 -8 14 -14 36 -15 50 0 59 -58 91 -92 53z
m52 -143 c0 -5 -4 -10 -9 -10 -5 0 -12 -17 -16 -37 l-8 -38 -10 30 c-5 17 -14
35 -19 42 -7 8 -1 13 19 16 15 2 31 5 36 6 4 0 7 -3 7 -9z"/>
<path d="M632 2633 c3 -27 5 -28 63 -28 57 0 60 1 60 25 0 24 -3 25 -63 28
l-63 3 3 -28z"/>
<path d="M3638 2563 c-17 -4 -32 -32 -82 -147 -30 -67 -32 -89 -11 -106 18
-15 20 -71 3 -88 -7 -7 -15 -38 -19 -70 -4 -31 -15 -85 -23 -120 -19 -72 -10
-102 28 -102 32 0 48 23 57 78 4 26 20 106 34 177 24 115 30 133 56 155 28 24
29 29 29 101 0 62 -4 81 -21 103 -11 14 -23 25 -27 25 -4 -1 -15 -3 -24 -6z
m-48 -428 c0 -8 -4 -17 -10 -20 -6 -4 -10 5 -10 20 0 15 4 24 10 20 6 -3 10
-12 10 -20z"/>
<path d="M4818 2530 c-22 -14 -80 -137 -76 -164 2 -11 13 -25 26 -31 21 -9 22
-14 22 -147 0 -125 2 -140 20 -158 24 -24 30 -24 56 -6 17 13 19 28 19 157 l0
143 25 6 c16 4 26 14 28 29 6 42 -64 181 -91 181 -7 0 -20 -5 -29 -10z"/>
<path d="M5619 2333 c-24 -29 -49 -92 -49 -123 0 -19 8 -34 26 -47 25 -18 26
-25 31 -134 3 -63 10 -122 15 -131 10 -21 53 -24 65 -5 4 6 6 63 5 125 -3 108
-2 114 22 143 14 17 26 35 26 41 0 20 -53 123 -69 135 -23 18 -56 16 -72 -4z
m71 -333 c0 -62 -15 -88 -26 -45 -8 33 4 117 17 110 5 -4 9 -33 9 -65z"/>
<path d="M4414 2095 c-27 -18 -84 -137 -84 -175 0 -16 7 -33 16 -38 14 -8 15
-21 10 -83 -18 -204 -19 -246 -2 -252 9 -4 22 -4 29 -2 19 8 47 106 47 164 0
29 5 62 11 73 6 11 14 41 18 67 5 37 12 48 34 59 32 15 32 20 11 104 -23 91
-47 114 -90 83z m16 -164 c0 -16 -3 -37 -6 -46 -5 -13 -10 -10 -26 16 -19 31
-19 33 -2 46 27 19 34 16 34 -16z m-40 -186 c0 -8 -4 -15 -10 -15 -5 0 -10 7
-10 15 0 8 5 15 10 15 6 0 10 -7 10 -15z"/>
<path d="M1499 1945 c-52 -35 -67 -88 -29 -100 17 -5 20 -15 20 -58 0 -59 17
-100 43 -105 40 -8 47 14 47 142 0 154 -11 170 -81 121z"/>
<path d="M4011 1838 c-12 -12 -24 -30 -27 -41 -3 -11 -19 -42 -35 -69 -30 -50
-38 -101 -18 -114 6 -3 8 -16 4 -28 -4 -11 -10 -37 -15 -56 -4 -19 -13 -48
-18 -65 -33 -95 -44 -152 -33 -174 7 -11 20 -21 31 -21 22 0 50 25 50 45 0 8
6 29 14 47 8 18 24 76 36 128 13 52 27 99 31 105 5 5 9 16 9 24 0 8 12 24 26
36 23 18 26 28 28 99 2 83 -7 106 -44 106 -11 0 -28 -10 -39 -22z"/>
<path d="M5192 1757 c-18 -22 -72 -135 -72 -151 0 -9 14 -22 30 -31 29 -15 30
-19 30 -78 0 -35 -5 -89 -10 -120 -8 -40 -8 -62 0 -77 12 -22 54 -27 66 -9 6
11 8 143 2 179 -1 8 4 35 12 59 10 32 21 46 42 53 16 6 28 17 28 26 0 36 -44
139 -65 154 -16 12 -52 9 -63 -5z m38 -126 c0 -6 -5 -13 -10 -16 -15 -9 -43 3
-35 15 8 13 45 13 45 1z"/>
<path d="M7786 1430 c-42 -37 -50 -84 -16 -95 17 -5 20 -15 20 -66 0 -46 4
-63 20 -79 23 -23 30 -24 53 -7 15 11 17 29 15 142 l-3 130 -27 3 c-18 2 -37
-7 -62 -28z"/>
<path d="M2388 1351 c-13 -11 -33 -45 -43 -75 -19 -55 -19 -57 0 -112 32 -93
95 -121 155 -66 36 32 51 96 40 168 -13 86 -93 131 -152 85z m57 -131 c0 -26
-5 -45 -12 -47 -9 -3 -13 10 -13 47 0 37 4 50 13 48 7 -3 12 -22 12 -48z"/>
<path d="M4787 1333 c-29 -48 -87 -164 -87 -175 0 -7 9 -22 21 -32 17 -14 20
-24 14 -49 -3 -18 -11 -54 -17 -82 -6 -27 -11 -81 -12 -120 -1 -65 1 -70 21
-73 31 -4 63 49 63 104 0 23 7 58 15 77 8 20 15 50 15 66 0 41 18 77 48 97 23
15 24 20 19 86 -7 80 -25 108 -68 108 -15 0 -30 -3 -32 -7z m-7 -265 c0 -16
-3 -19 -11 -11 -6 6 -8 16 -5 22 11 17 16 13 16 -11z"/>
<path d="M6582 963 c-23 -21 -52 -92 -52 -128 0 -36 29 -107 52 -127 23 -21
87 -24 110 -5 36 29 48 61 48 132 0 71 -12 103 -48 133 -23 18 -87 15 -110 -5z
m66 -134 c-2 -24 -7 -44 -13 -44 -12 0 -19 69 -10 93 11 29 26 -4 23 -49z"/>
<path d="M3317 725 c-44 -42 -45 -55 -12 -91 20 -22 25 -37 25 -80 0 -68 29
-100 68 -76 9 7 12 42 10 143 l-3 134 -25 3 c-19 2 -37 -7 -63 -33z"/>
<path d="M3171 606 c-34 -40 31 -80 92 -57 23 9 28 16 25 39 -3 25 -7 27 -54
30 -36 2 -54 -1 -63 -12z"/>
<path d="M5490 484 c-47 -42 -49 -57 -15 -88 19 -18 25 -33 25 -67 0 -66 9
-88 38 -96 42 -10 52 16 52 140 0 59 -5 117 -10 128 -16 29 -45 23 -90 -17z"/>
<path d="M5348 369 c-41 -23 -6 -69 51 -69 46 0 66 20 57 55 -6 22 -12 25 -49
25 -23 0 -50 -5 -59 -11z"/>
</g>
</svg>
